<svg width="44" height="34" viewBox="0 0 44 34" fill="none" xmlns="http://www.w3.org/2000/svg">
<rect x="0.625" y="0.125" width="30.5207" height="30.5207" rx="15.2603" fill="#FF8D27"/>
<path d="M30.6096 11.375C23.6944 11.375 18.0899 15.9281 18.0899 21.5472C18.0899 23.8751 19.0631 26.0074 20.677 27.7239C19.9483 29.6508 18.4323 31.2842 18.4078 31.3038C18.085 31.6461 17.997 32.145 18.1828 32.5753C18.3687 33.0057 18.7941 33.2844 19.2636 33.2844C22.2713 33.2844 24.6432 32.0276 26.0663 31.0201C27.4797 31.4652 29.0055 31.7195 30.6096 31.7195C37.5248 31.7195 43.1293 27.1664 43.1293 21.5472C43.1293 15.9281 37.5248 11.375 30.6096 11.375ZM30.6096 29.372C29.3038 29.372 28.0127 29.1715 26.7754 28.7803L25.6653 28.4282L24.7117 29.1031C24.0123 29.597 23.0538 30.1496 21.8996 30.5213C22.2566 29.9296 22.6038 29.2645 22.8728 28.5553L23.3912 27.1811L22.3838 26.115C21.4986 25.1711 20.4374 23.611 20.4374 21.5472C20.4374 17.2338 25.0002 13.7224 30.6096 13.7224C36.219 13.7224 40.7818 17.2338 40.7818 21.5472C40.7818 25.8607 36.219 29.372 30.6096 29.372Z" fill="black"/>
</svg>
