<svg xmlns="http://www.w3.org/2000/svg" width="32" height="32" fill="none" viewBox="0 0 32 32">
    <g clip-path="url(#prefix__clip0)">
        <path fill="#F3B51A" d="M30.403 22.202H2.307v2.508h28.096v-2.508z"/>
        <path fill="#292C6B" d="M30.403 7.29H2.307v2.508h28.096V7.29zM16.114 12.562l-1.481 6.892h-1.79l1.48-6.893h1.791zm7.536 4.45l.943-2.588.542 2.588H23.65zm1.999 2.442h1.656l-1.447-6.893h-1.527c-.345 0-.635.2-.764.506l-2.687 6.387h1.881l.373-1.03h2.298l.217 1.03zm-4.676-2.25c.008-1.82-2.526-1.92-2.509-2.733.005-.247.242-.51.76-.577.256-.033.964-.06 1.766.308l.314-1.462c-.431-.155-.985-.305-1.675-.305-1.771 0-3.017.937-3.027 2.279-.011.992.89 1.545 1.567 1.876.7.338.933.554.93.856-.005.463-.558.667-1.072.675-.9.014-1.422-.242-1.84-.436l-.324 1.512c.419.19 1.192.356 1.991.365 1.883 0 3.114-.925 3.119-2.358zm-7.418-4.643l-2.903 6.893H8.76l-1.428-5.5c-.087-.339-.162-.463-.426-.606-.43-.233-1.141-.45-1.766-.586l.042-.2h3.048c.388 0 .737.257.826.702l.755 3.989 1.863-4.691h1.882z"/>
    </g>
    <defs>
        <clipPath id="prefix__clip0">
            <path fill="#fff" d="M0 0h32v32H0V0z"/>
        </clipPath>
    </defs>
</svg>
