<svg xmlns="http://www.w3.org/2000/svg" width="32" height="32" fill="none" viewBox="0 0 32 32">
    <g clip-path="url(#prefix__clip0)">
        <path fill="#fff" d="M6.654 16.25c0-4.696 3.76-8.503 8.399-8.503 4.638 0 8.399 3.807 8.399 8.503 0 4.695-3.76 8.502-8.4 8.502-4.638 0-8.398-3.806-8.398-8.502z"/>
        <path fill="#01528B" d="M20.134 16.081c-.004-2.177-1.349-4.034-3.243-4.77v9.54c1.894-.736 3.239-2.591 3.243-4.77zm-6.857 4.768v-9.536c-1.893.738-3.235 2.592-3.24 4.768.005 2.177 1.347 4.031 3.24 4.768zm1.808-12.83c-4.399.001-7.963 3.61-7.963 8.062 0 4.453 3.564 8.06 7.963 8.061 4.399 0 7.964-3.608 7.965-8.06-.001-4.453-3.566-8.062-7.965-8.063zm-.02 16.884c-4.813.023-8.775-3.924-8.775-8.73 0-5.251 3.962-8.884 8.776-8.883h2.255c4.757 0 9.098 3.63 9.098 8.884 0 4.803-4.341 8.73-9.098 8.73h-2.255z"/>
    </g>
    <defs>
        <clipPath id="prefix__clip0">
            <path fill="#fff" d="M0 0h32v32H0V0z"/>
        </clipPath>
    </defs>
</svg>
