<svg xmlns="http://www.w3.org/2000/svg" width="32" height="32" fill="none" viewBox="0 0 32 32">
    <g clip-path="url(#prefix__clip0)">
        <path fill="#FF5F00" d="M20.358 9.153h-8.39v13.693h8.39V9.153z"/>
        <path fill="#EB001B" d="M12.832 16c-.001-1.318.298-2.62.874-3.806.577-1.186 1.416-2.225 2.454-3.039-1.285-1.01-2.83-1.637-4.455-1.812-1.626-.174-3.268.112-4.74.827-1.47.714-2.71 1.827-3.578 3.212-.867 1.385-1.327 2.986-1.327 4.62s.46 3.235 1.327 4.62c.868 1.384 2.108 2.498 3.579 3.212 1.47.714 3.113 1 4.739.826 1.626-.174 3.17-.802 4.455-1.812-1.038-.814-1.877-1.854-2.454-3.04-.577-1.187-.876-2.488-.874-3.808z"/>
        <path fill="#F79E1B" d="M29.43 21.397v-.28h.12v-.059h-.287v.058h.113v.281h.054zm.559 0v-.339h-.087l-.102.242-.102-.242h-.087v.339h.063v-.256l.095.22h.065l.095-.22v.256h.06zM30.262 16c0 1.635-.46 3.236-1.328 4.62-.867 1.386-2.107 2.499-3.578 3.213-1.471.714-3.114 1-4.74.826-1.626-.175-3.17-.803-4.456-1.813 1.038-.815 1.877-1.854 2.454-3.04.577-1.187.877-2.488.877-3.807 0-1.318-.3-2.62-.877-3.806s-1.416-2.225-2.454-3.04c1.286-1.01 2.83-1.638 4.456-1.813 1.626-.174 3.269.112 4.74.826 1.47.714 2.71 1.827 3.578 3.212.868 1.385 1.328 2.986 1.328 4.62v.003z"/>
    </g>
    <defs>
        <clipPath id="prefix__clip0">
            <path fill="#fff" d="M0 0h32v32H0V0z"/>
        </clipPath>
    </defs>
</svg>
