<svg xmlns="http://www.w3.org/2000/svg" width="32" height="32" fill="none" viewBox="0 0 32 32">
    <g clip-path="url(#prefix__clip0)">
        <path fill="#FFBE00" d="M12.728 14.785c-.164-.871-.517-1.696-1.035-2.415-.518-.72-1.188-1.316-1.961-1.748-.774-.431-1.634-.688-2.518-.75-.884-.064-1.771.069-2.598.386l.925 2.408c.474-.183.983-.259 1.49-.223.507.036 1 .184 1.444.431.444.248.828.59 1.125 1.003.297.412.5.885.594 1.385l2.534-.477z"/>
        <path fill="#0096DB" d="M2.678 11.464c-.604.56-1.087 1.236-1.42 1.988-.334.752-.511 1.564-.52 2.387-.008.823.15 1.638.468 2.398.318.759.787 1.445 1.379 2.017l1.79-1.856c-.339-.327-.608-.721-.79-1.156-.182-.436-.273-.904-.268-1.376.005-.472.106-.938.297-1.369.192-.431.47-.82.816-1.14l-1.752-1.893z"/>
        <path fill="#E82717" d="M4.641 21.558c.83.315 1.72.443 2.606.375.886-.068 1.745-.33 2.518-.768.773-.438 1.44-1.04 1.954-1.765.513-.724.861-1.553 1.018-2.427l-2.538-.456c-.09.501-.29.977-.584 1.392-.295.416-.677.761-1.12 1.012-.444.251-.937.402-1.445.44-.508.04-1.018-.034-1.494-.215l-.915 2.412z"/>
        <path fill="#000" fill-rule="evenodd" d="M23.415 11.418h-1.511v7.106c0 .547.29 1.027.726 1.292l-.001.003.024.01c.082.048.168.089.259.12l1.077.5.656-1.415-1.23-.57v-7.046zm7.905 3.033c.324.45.545.965.647 1.509l-1.584.298c-.059-.312-.185-.608-.37-.865-.187-.258-.427-.472-.704-.627-.277-.155-.586-.247-.902-.27-.317-.022-.635.026-.932.14l-.578-1.505c.517-.199 1.071-.281 1.624-.242.552.04 1.09.2 1.573.47.484.27.902.642 1.226 1.092zm-14.462 5.91c-.506-.104-.986-.311-1.409-.608l.926-1.32c.242.171.517.29.808.35.29.06.59.059.88-.002.29-.06.564-.18.806-.35.243-.171.447-.39.602-.643l1.375.84c-.269.44-.625.822-1.047 1.12-.423.297-.901.505-1.407.611-.506.105-1.028.106-1.534.002zm8.828-6.476c-.378.35-.68.772-.888 1.242-.209.47-.32.978-.325 1.492-.005.514.095 1.024.293 1.498.198.475.492.904.861 1.261l1.12-1.16c-.212-.204-.38-.45-.494-.722-.114-.272-.171-.565-.168-.86.003-.295.066-.586.186-.856s.293-.512.51-.712l-1.095-1.183zm2.855 6.543c-.553.042-1.109-.038-1.628-.235l.571-1.507c.298.113.617.159.934.135.318-.025.626-.119.903-.276.277-.157.516-.373.7-.632.184-.26.31-.557.365-.87l1.587.285c-.098.546-.316 1.064-.637 1.517-.32.453-.738.83-1.22 1.103-.484.273-1.021.437-1.575.48zM14.38 18.604l1.253-.538 4.293-1.84 1.338-.574c-.122-.441-.323-.857-.595-1.227-.334-.456-.765-.83-1.263-1.097-.498-.267-1.05-.419-1.614-.444-.564-.026-1.127.075-1.647.296-.52.22-.984.554-1.357.978-.374.423-.648.925-.803 1.468-.154.543-.185 1.114-.09 1.671.08.463.244.906.485 1.307zm4.667-3.577c-.123-.108-.258-.201-.402-.279-.286-.153-.602-.24-.926-.255-.323-.014-.646.044-.944.17-.299.127-.565.319-.78.561-.214.243-.37.531-.46.843-.046.163-.073.331-.08.5l3.592-1.54z" clip-rule="evenodd"/>
    </g>
    <defs>
        <clipPath id="prefix__clip0">
            <path fill="#fff" d="M0 0h32v32H0V0z"/>
        </clipPath>
    </defs>
</svg>
