<svg xmlns="http://www.w3.org/2000/svg" width="32" height="32" fill="none" viewBox="0 0 32 32">
    <g clip-path="url(#prefix__clip0)">
        <path fill="url(#prefix__paint0_radial)" d="M7.645 7.29v17.42h17.317v-5.75c.068-.1.102-.228.102-.384 0-.177-.034-.287-.102-.38V7.29H7.645z"/>
        <path fill="#fff" d="M7.645 16.107h.832l.187-.456h.42l.187.456h1.637v-.348l.146.349h.848l.146-.353v.352h4.067l-.002-.745h.079c.055.001.07.008.07.099v.646h2.103v-.175c.17.092.434.175.78.175h.886l.19-.456h.42l.185.456h1.704v-.432l.259.432h1.365v-2.848h-1.352v.337l-.189-.337h-1.387v.337l-.174-.337h-1.874c-.313 0-.59.043-.813.166v-.166h-1.292v.166c-.143-.126-.336-.166-.55-.166h-4.724l-.32.736-.323-.736H9.668v.337l-.165-.337H8.235l-.59 1.352v1.496zm16.076-.403h-.69l-.923-1.53.002 1.53h-.992l-.19-.455h-1.012l-.182.455h-.57c-.237 0-.537-.053-.705-.225-.173-.174-.26-.408-.26-.78 0-.303.053-.579.262-.797.158-.163.404-.239.739-.239h.47v.437h-.46c-.177 0-.279.028-.376.122-.081.086-.14.249-.14.463 0 .219.043.375.136.479.073.08.21.105.338.105h.219l.686-1.606h.729l.823 1.93v-1.93h.743l.855 1.421v-1.42h.498v2.04zm-5.76 0h-.497v-2.04h.497v2.04zm-.78-1.489c0 .322-.217.493-.342.543.106.042.197.111.24.173.068.099.081.193.081.372v.401h-.49l-.003-.257c0-.12.013-.298-.078-.395-.07-.073-.178-.088-.354-.088h-.523v.74h-.486v-2.04h1.12c.247 0 .432.008.589.098.154.09.246.224.246.453zm-2.293 1.49h-1.625v-2.042h1.626v.427H13.75v.367h1.11v.419l-1.11-.002v.408h1.139v.422zm-1.988 0h-.498l-.003-1.597-.705 1.596h-.427l-.71-1.6v1.6h-.989l-.186-.455H8.368l-.187.455h-.53l.87-2.04h.724l.828 1.932v-1.933h.796l.635 1.386.586-1.386h.81v2.041zm7.862-.881l-.337-.812-.334.812h.671zm-4.218-.322c-.066.037-.145.041-.24.041h-.592v-.453h.6c.085 0 .173.003.231.035.063.031.102.094.102.18 0 .09-.038.16-.1.197zm-7.338.322l-.333-.812-.331.812h.664zM17.065 17.851c0 .566-.421.684-.848.684h-.607v.685h-.945l-.6-.675-.622.675h-1.927v-2.042h1.957l.599.669.619-.669h1.554c.386 0 .82.108.82.673zm-3.869.943H12v-.406h1.068v-.417H12v-.37h1.22l.532.594-.556.599zm1.93.24l-.747-.831.746-.805v1.637zm1.115-.914h-.631V17.6h.635c.177 0 .298.071.298.25 0 .177-.116.269-.302.269zm3.282-.942h1.626v.423h-1.14v.37h1.111v.417h-1.112v.406l1.14.002v.424h-1.625v-2.042zm-.615 1.093c.108.04.197.111.238.172.07.1.08.192.08.373v.404h-.486v-.256c0-.123.01-.304-.08-.398-.07-.075-.18-.092-.357-.092h-.52v.746h-.488v-2.042h1.123c.246 0 .426.01.585.098.154.09.25.22.25.453 0 .325-.216.49-.345.542zm-.294-.253c-.064.037-.145.041-.24.041h-.591v-.458h.599c.087 0 .175.002.232.036.063.034.1.096.1.184 0 .087-.037.158-.1.197zm4.39.124c.098.1.148.224.148.433 0 .44-.274.645-.765.645h-.949v-.438h.945c.094 0 .158-.012.2-.052.033-.03.057-.075.057-.131 0-.06-.025-.108-.06-.135-.038-.033-.088-.046-.173-.047-.455-.015-1.025.014-1.025-.632 0-.295.186-.607.695-.607h.977v.434h-.893c-.089 0-.146.004-.196.037-.052.034-.072.084-.072.148 0 .076.045.129.106.152.051.017.106.022.189.023l.263.007c.264.007.444.053.554.163zm1.945.816c-.12.175-.35.262-.662.262h-.94v-.438h.936c.092 0 .158-.012.197-.052.032-.03.058-.075.058-.131 0-.06-.026-.108-.059-.135-.037-.033-.088-.046-.171-.047-.458-.015-1.027.014-1.027-.632 0-.295.187-.607.697-.607h.97v-.406h-.901c-.273 0-.47.065-.61.167v-.167h-1.332c-.212 0-.462.054-.582.167l.001-.167h-2.38v.167c-.189-.136-.507-.167-.656-.167H16.92v.167c-.15-.145-.483-.167-.687-.167h-1.756l-.402.437-.376-.437h-2.624v2.85h2.575l.414-.444.39.443 1.586.001v-.67h.157c.21.002.459-.005.677-.1v.77h1.309v-.744h.064c.08 0 .088.005.088.084v.66h3.976c.252 0 .515-.066.662-.183v.182h1.26c.264 0 .52-.037.716-.13v-.533zm0-1.345h-.889c-.09 0-.149.003-.196.036-.051.034-.072.084-.072.148 0 .076.044.129.108.152.05.017.106.022.187.023l.263.007c.265.007.444.053.553.163.018.017.031.035.046.052v-.581z"/>
        <path fill="#009EDA" d="M17.176 14.226c0 .323-.217.492-.342.543.106.041.197.111.239.172.068.1.082.193.082.373v.401h-.492l-.001-.257c0-.121.012-.299-.079-.396-.07-.072-.177-.088-.353-.088h-.523v.741h-.487v-2.04h1.12c.248 0 .432.007.59.098.154.09.246.224.246.453z"/>
        <path fill="#00A5DD" d="M14.887 15.715h-1.626v-2.04h1.626v.426h-1.139v.367h1.11v.419l-1.11-.002v.408h1.139v.422z"/>
        <path fill="#39AFE2" d="M12.894 15.715h-.499l-.002-1.596-.705 1.596h-.427l-.71-1.6v1.6h-.989l-.186-.455H8.362l-.188.455h-.529l.87-2.04h.724l.827 1.933v-1.933h.797l.636 1.385.585-1.385h.81v2.04z"/>
        <path fill="#fff" d="M16.542 14.502c-.066.038-.145.041-.24.041h-.592v-.453h.6c.085 0 .174.003.231.035.063.031.102.094.102.18 0 .09-.038.161-.101.197zM9.214 14.827l-.333-.813-.331.813h.664z"/>
    </g>
    <defs>
        <radialGradient id="prefix__paint0_radial" cx="0" cy="0" r="1" gradientTransform="matrix(20.6455 0 0 20.6937 10.552 10.297)" gradientUnits="userSpaceOnUse">
            <stop stop-color="#72CBF2"/>
            <stop offset=".22" stop-color="#3CB4E6"/>
            <stop offset=".28" stop-color="#06ACE1"/>
            <stop offset="1" stop-color="#006FAF"/>
        </radialGradient>
        <clipPath id="prefix__clip0">
            <path fill="#fff" d="M0 0h32v32H0V0z"/>
        </clipPath>
    </defs>
</svg>
