<svg xmlns="http://www.w3.org/2000/svg" width="32" height="32" fill="none" viewBox="0 0 32 32">
    <path fill="#7D7283" d="M16 6c-2.13 0-4.204.68-5.921 1.941-1.717 1.262-2.986 3.038-3.622 5.07-.637 2.034-.607 4.216.083 6.232.691 2.015 2.007 3.756 3.757 4.971 1.75 1.215 3.841 1.84 5.97 1.782 2.13-.057 4.186-.792 5.868-2.099 1.682-1.307 2.903-3.116 3.485-5.165.581-2.05.494-4.23-.25-6.227l-1.87.697c.596 1.598.666 3.344.2 4.985-.465 1.64-1.442 3.089-2.79 4.135-1.346 1.046-2.991 1.635-4.696 1.68-1.704.046-3.379-.454-4.78-1.426-1.4-.973-2.454-2.367-3.007-3.98-.553-1.613-.576-3.36-.066-4.988.51-1.627 1.525-3.05 2.9-4.059 1.373-1.01 3.034-1.554 4.739-1.554V6z"/>
</svg>
