<svg width="11" height="12" viewBox="0 0 11 12" fill="none" xmlns="http://www.w3.org/2000/svg">
<path d="M10.6004 1.44542L8.36607 0.92981C8.1233 0.873951 7.87409 1.00071 7.77526 1.22844L6.74403 3.63464C6.6538 3.84518 6.71395 4.09224 6.89227 4.23619L8.1942 5.30179C7.42077 6.9496 6.06944 8.32028 4.38724 9.10874L3.32164 7.80681C3.17555 7.6285 2.93063 7.56834 2.72009 7.65857L0.313889 8.6898C0.0840111 8.79078 -0.0427441 9.03999 0.0131141 9.28276L0.528729 11.5171C0.582439 11.7491 0.788684 11.9167 1.03145 11.9167C6.53349 11.9167 11 7.45877 11 1.94815C11 1.70753 10.8346 1.49913 10.6004 1.44542Z" fill="#F37300"/>
</svg>
