<svg width="17" height="19" viewBox="0 0 17 19" fill="none" xmlns="http://www.w3.org/2000/svg">
<path d="M12.1201 11.8976L8.5 15.4377L4.87991 11.8976C2.16674 12.0126 0 14.1834 0 16.8626V17.2188C0 18.2022 0.815848 19 1.82143 19H15.1786C16.1842 19 17 18.2022 17 17.2188V16.8626C17 14.1834 14.8333 12.0126 12.1201 11.8976V11.8976ZM0.516071 2.96211L0.758929 3.01777V5.18485C0.493304 5.34071 0.303571 5.61159 0.303571 5.93814C0.303571 6.24984 0.478125 6.50959 0.724777 6.66916L0.132812 8.98096C0.0683036 9.237 0.2125 9.50046 0.421205 9.50046H2.00737C2.21607 9.50046 2.36027 9.237 2.29576 8.98096L1.70379 6.66916C1.95045 6.50959 2.125 6.24984 2.125 5.93814C2.125 5.61159 1.93527 5.34071 1.66964 5.18485V3.233L4.17411 3.82301C3.84777 4.46126 3.64286 5.17372 3.64286 5.93814C3.64286 8.56164 5.81719 10.6879 8.5 10.6879C11.1828 10.6879 13.3571 8.56164 13.3571 5.93814C13.3571 5.17372 13.156 4.46126 12.8259 3.82301L16.4801 2.96211C17.1708 2.79884 17.1708 1.9565 16.4801 1.79322L9.25513 0.0862751C8.76183 -0.0287584 8.24196 -0.0287584 7.74866 0.0862751L0.516071 1.78951C-0.170759 1.95279 -0.170759 2.79884 0.516071 2.96211V2.96211Z" fill="#555555"/>
</svg>
