<svg width="23" height="19" viewBox="0 0 23 19" fill="none" xmlns="http://www.w3.org/2000/svg">
  <path d="M21.2411 11.7581H2.36801L0.814941 18.8366H22.7934L21.2411 11.7581ZM9.63497 17.8629L9.95074 16.4204H13.6576L13.9734 17.8629H9.63497Z" fill="#222222"/>
  <path d="M21.1922 11.3109V6.96692H21.1915V0.105255H14.1086H9.49876H2.41797V6.96764V11.3116H21.1922V11.3109ZM19.8561 10.1911H3.75264V1.44907H9.78374H13.8257H19.8568L19.8561 10.1911Z" fill="#222222"/>
  <path d="M11.5088 5.87587C12.4397 5.87587 13.1943 5.11688 13.1943 4.18062C13.1943 3.24436 12.4397 2.48537 11.5088 2.48537C10.5779 2.48537 9.82324 3.24436 9.82324 4.18062C9.82324 5.11688 10.5779 5.87587 11.5088 5.87587Z" fill="#222222"/>
  <path d="M12.1596 6.13077L11.5367 6.88045L10.8944 6.13077L9.40723 6.47284V9.43269H9.93709L9.96358 9.93824H13.0088L13.0339 9.43269H13.4299V6.54558L12.1596 6.13077Z" fill="#222222"/>
</svg>
