<svg width="18" height="17" viewBox="0 0 18 17" fill="none" xmlns="http://www.w3.org/2000/svg">
  <path d="M9 0.5C6.82531 0.5 5.0625 2.26281 5.0625 4.4375C5.0625 6.19562 7.63594 9.4 8.62187 10.5631C8.82156 10.7987 9.17875 10.7987 9.37813 10.5631C10.3641 9.4 12.9375 6.19562 12.9375 4.4375C12.9375 2.26281 11.1747 0.5 9 0.5ZM0.62875 7.24844C0.443181 7.32266 0.284103 7.45078 0.172034 7.61626C0.0599652 7.78175 4.4444e-05 7.97701 0 8.17688L0 15.9994C0 16.3531 0.357188 16.595 0.685625 16.4637L5 14.5V7.21625C4.72375 6.71688 4.49781 6.23063 4.33594 5.76562L0.62875 7.24844ZM9 11.7397C8.56031 11.7397 8.14437 11.5466 7.85906 11.2097C7.24469 10.4847 6.59125 9.65906 6 8.81219V14.4997L12 16.4997V8.8125C11.4087 9.65906 10.7556 10.485 10.1409 11.21C9.85563 11.5466 9.43969 11.7397 9 11.7397ZM17.3144 5.53625L13 7.5V16.5L17.3713 14.7516C17.5568 14.6774 17.7159 14.5493 17.828 14.3838C17.9401 14.2183 18 14.023 18 13.8231V6.00063C18 5.64688 17.6428 5.405 17.3144 5.53625Z" fill="#FF8D27"/>
</svg>
