<svg width="45" height="45" viewBox="0 0 45 45" fill="none" xmlns="http://www.w3.org/2000/svg">
  <path d="M7.03773 20.5899H7.03784H12.085H12.0851C12.3152 20.5896 12.5359 20.4981 12.6987 20.3354C12.8615 20.1727 12.9531 19.952 12.9534 19.7219V19.7217V18.0154C12.9534 17.849 12.8873 17.6895 12.7696 17.5718C12.652 17.4542 12.4924 17.3881 12.326 17.3881C12.1597 17.3881 12.0001 17.4542 11.8824 17.5718C11.7648 17.6895 11.6987 17.849 11.6987 18.0154V19.3352H7.4241V15.0677H9.56135C9.72773 15.0677 9.8873 15.0016 10.005 14.884C10.1226 14.7663 10.1887 14.6068 10.1887 14.4404C10.1887 14.274 10.1226 14.1144 10.005 13.9968C9.8873 13.8791 9.72773 13.813 9.56135 13.813L7.03784 13.813L7.03775 13.813C6.80756 13.8132 6.58687 13.9047 6.42408 14.0675C6.26129 14.2302 6.1697 14.4509 6.16941 14.6811V14.6812L6.16941 19.7217L6.16941 19.7219C6.16972 19.952 6.26132 20.1727 6.4241 20.3354C6.58688 20.4981 6.80756 20.5896 7.03773 20.5899Z" fill="#222222" stroke="black" stroke-width="0.2"/>
  <path d="M13.3531 13.5403C13.2897 13.4876 13.2166 13.4478 13.138 13.4234C13.0593 13.3989 12.9766 13.3902 12.8945 13.3977C12.8125 13.4052 12.7327 13.4288 12.6598 13.4672C12.5869 13.5055 12.5222 13.5579 12.4696 13.6212L10.017 16.5682L9.28695 15.9775C9.22313 15.9247 9.1495 15.8851 9.07029 15.8609C8.99089 15.8367 8.90747 15.8285 8.82487 15.8367C8.74226 15.845 8.66212 15.8695 8.58908 15.909C8.51604 15.9484 8.45155 16.002 8.39936 16.0665C8.34717 16.1311 8.30831 16.2054 8.28503 16.285C8.26175 16.3647 8.25452 16.4482 8.26376 16.5307C8.27299 16.6132 8.29851 16.6931 8.33883 16.7656C8.37904 16.838 8.43319 16.9017 8.49814 16.9531L9.46736 17.7372C9.46748 17.7373 9.46759 17.7374 9.4677 17.7375C9.64616 17.8842 9.87255 17.9597 10.1033 17.9495C10.334 17.9393 10.5528 17.8441 10.7176 17.6824L10.7384 17.6625L10.7388 17.663L13.3572 14.36L13.4341 14.4239C13.4868 14.3606 13.5265 14.2875 13.551 14.2088C13.5754 14.1301 13.5842 14.0474 13.5766 13.9653C13.5691 13.8832 13.5455 13.8035 13.5071 13.7305C13.4688 13.6576 13.4164 13.5929 13.3531 13.5403ZM13.3531 13.5403L13.2891 13.6171L13.353 13.5402C13.353 13.5402 13.3531 13.5402 13.3531 13.5403Z" fill="#222222" stroke="black" stroke-width="0.2"/>
  <path d="M38.8564 14.1807H18.2791C18.1127 14.1807 17.9531 14.2468 17.8355 14.3644C17.7178 14.4821 17.6517 14.6417 17.6517 14.808C17.6517 14.9744 17.7178 15.134 17.8355 15.2516C17.9531 15.3693 18.1127 15.4354 18.2791 15.4354H38.8564C39.0228 15.4354 39.1824 15.3693 39.3 15.2516C39.4177 15.134 39.4838 14.9744 39.4838 14.808C39.4838 14.6417 39.4177 14.4821 39.3 14.3644C39.1824 14.2468 39.0228 14.1807 38.8564 14.1807Z" fill="#222222" stroke="black" stroke-width="0.2"/>
  <path d="M38.8564 18.5499H18.2791C18.1127 18.5499 17.9531 18.616 17.8355 18.7336C17.7178 18.8513 17.6517 19.0109 17.6517 19.1772C17.6517 19.3436 17.7178 19.5032 17.8355 19.6208C17.9531 19.7385 18.1127 19.8046 18.2791 19.8046H38.8564C39.0228 19.8046 39.1824 19.7385 39.3 19.6208C39.4177 19.5032 39.4838 19.3436 39.4838 19.1772C39.4838 19.0109 39.4177 18.8513 39.3 18.7336C39.1824 18.616 39.0228 18.5499 38.8564 18.5499Z" fill="#222222" stroke="black" stroke-width="0.2"/>
  <path d="M11.6987 29.1923V30.5122H7.4241V26.2446H9.56135C9.72773 26.2446 9.8873 26.1785 10.005 26.0608C10.1226 25.9432 10.1887 25.7836 10.1887 25.6172C10.1887 25.4509 10.1226 25.2913 10.005 25.1737C9.8873 25.056 9.72774 24.9899 9.56135 24.9899L7.03784 24.9899L7.03773 24.9899C6.80756 24.9901 6.58688 25.0817 6.4241 25.2444C6.26132 25.4071 6.16972 25.6278 6.16941 25.8579V25.8581L6.16941 30.8986L6.16941 30.8987C6.1697 31.1289 6.26128 31.3496 6.42407 31.5123C6.58685 31.6751 6.80755 31.7666 7.03773 31.7669H7.03784H12.085H12.0851C12.3152 31.7666 12.5359 31.6751 12.6987 31.5123C12.8615 31.3496 12.9531 31.1289 12.9534 30.8987V30.8986V29.1923C12.9534 29.0259 12.8873 28.8663 12.7696 28.7487C12.652 28.631 12.4924 28.5649 12.326 28.5649C12.1597 28.5649 12.0001 28.631 11.8824 28.7487C11.7648 28.8663 11.6987 29.0259 11.6987 29.1923Z" fill="#222222" stroke="black" stroke-width="0.2"/>
  <path d="M13.353 24.717L13.353 24.717L12.5464 24.862L12.4695 24.798L12.4695 24.798L10.0173 27.7449L9.28715 27.1542C9.22333 27.1016 9.14971 27.062 9.07054 27.0379C8.99119 27.0138 8.90784 27.0056 8.82531 27.0139C8.74278 27.0221 8.66271 27.0467 8.58973 27.0861C8.51675 27.1255 8.45231 27.179 8.40014 27.2435C8.34796 27.3079 8.30909 27.3821 8.28577 27.4617C8.26246 27.5413 8.25515 27.6247 8.26429 27.7072C8.27343 27.7896 8.29882 27.8694 8.339 27.942C8.37909 28.0144 8.43311 28.0781 8.49794 28.1296C8.49809 28.1297 8.49823 28.1298 8.49838 28.1299L9.46724 28.9138C9.46735 28.9139 9.46745 28.914 9.46756 28.914C9.64602 29.0607 9.8724 29.1362 10.1032 29.126C10.3339 29.1158 10.5528 29.0207 10.7176 28.8589C10.7177 28.8588 10.7178 28.8587 10.7179 28.8586L10.7384 28.8389L10.7388 28.8393L10.7459 28.8308L13.4339 25.6005C13.434 25.6005 13.434 25.6005 13.434 25.6005C13.4867 25.5372 13.5264 25.4641 13.5508 25.3854C13.5753 25.3067 13.584 25.224 13.5765 25.142C13.569 25.0599 13.5454 24.9802 13.507 24.9072C13.4687 24.8343 13.4163 24.7697 13.353 24.717Z" fill="#222222" stroke="black" stroke-width="0.2"/>
  <path d="M38.8564 25.3576H34.5719C34.4055 25.3576 34.2459 25.4237 34.1283 25.5413C34.0107 25.659 33.9446 25.8185 33.9446 25.9849C33.9446 26.1513 34.0107 26.3109 34.1283 26.4285C34.2459 26.5462 34.4055 26.6123 34.5719 26.6123H38.8564C39.0228 26.6123 39.1823 26.5462 39.3 26.4285C39.4176 26.3109 39.4837 26.1513 39.4837 25.9849C39.4837 25.8185 39.4176 25.659 39.3 25.5413C39.1823 25.4237 39.0228 25.3576 38.8564 25.3576Z" fill="#222222" stroke="black" stroke-width="0.2"/>
  <path d="M24.9622 25.3576H18.2791C18.1127 25.3576 17.9531 25.4237 17.8355 25.5413C17.7178 25.659 17.6517 25.8185 17.6517 25.9849C17.6517 26.1513 17.7178 26.3109 17.8355 26.4285C17.9531 26.5462 18.1127 26.6123 18.2791 26.6123H24.9622C25.1285 26.6123 25.2881 26.5462 25.4058 26.4285C25.5234 26.3109 25.5895 26.1513 25.5895 25.9849C25.5895 25.8185 25.5234 25.659 25.4058 25.5413C25.2881 25.4237 25.1285 25.3576 24.9622 25.3576Z" fill="#222222" stroke="black" stroke-width="0.2"/>
  <path d="M20.0802 29.7267H18.2791C18.1127 29.7267 17.9531 29.7928 17.8355 29.9104C17.7178 30.0281 17.6517 30.1876 17.6517 30.354C17.6517 30.5204 17.7178 30.68 17.8355 30.7976C17.9531 30.9153 18.1127 30.9813 18.2791 30.9813H20.0802C20.2466 30.9813 20.4061 30.9153 20.5238 30.7976C20.6414 30.68 20.7075 30.5204 20.7075 30.354C20.7075 30.1876 20.6414 30.0281 20.5238 29.9104C20.4061 29.7928 20.2466 29.7267 20.0802 29.7267Z" fill="#222222" stroke="black" stroke-width="0.2"/>
  <mask id="path-10-outside-1" maskUnits="userSpaceOnUse" x="0.0546875" y="-0.121094" width="45" height="45" fill="black">
    <rect fill="white" x="0.0546875" y="-0.121094" width="45" height="45"/>
    <path d="M41.5164 0.878906H3.48363C2.8397 0.879581 2.22234 1.13566 1.76698 1.59095C1.31162 2.04624 1.05546 2.66357 1.05469 3.3075V34.8251C1.05527 35.4684 1.31087 36.0853 1.76547 36.5405C2.22008 36.9957 2.8366 37.2521 3.47994 37.2536L23.5926 37.3959L24.6114 41.3995C24.6132 41.4066 24.6152 41.4137 24.6173 41.4208C24.8477 42.2031 25.3259 42.8894 25.98 43.3764C26.6341 43.8633 27.4287 44.1247 28.2442 44.1211H35.597C36.6012 44.1197 37.5637 43.7202 38.2736 43.01C38.9835 42.2999 39.3828 41.3371 39.3838 40.333V37.3711L41.5317 37.2539C42.173 37.2492 42.7864 36.9913 43.2384 36.5365C43.6905 36.0816 43.9445 35.4666 43.9453 34.8253V3.3075C43.9445 2.66357 43.6884 2.04624 43.233 1.59095C42.7777 1.13566 42.1603 0.879581 41.5164 0.878906ZM3.48363 1.93359H41.5164C41.8807 1.93394 42.23 2.07879 42.4876 2.33637C42.7452 2.59394 42.8902 2.94319 42.8906 3.3075V8.64677H2.10938V3.3075C2.10982 2.94319 2.25476 2.59394 2.5124 2.33637C2.77003 2.07879 3.11933 1.93394 3.48363 1.93359ZM38.3291 40.333C38.3284 41.0575 38.0404 41.7522 37.5282 42.2646C37.016 42.777 36.3215 43.0654 35.597 43.0664H28.2442C27.6577 43.069 27.0861 42.8816 26.6149 42.5322C26.1438 42.1829 25.7985 41.6903 25.6307 41.1283L24.5145 36.7416C24.2513 35.7087 23.9003 34.7001 23.4652 33.727L23.3789 33.5222C23.9409 33.5222 24.4944 33.6586 24.992 33.9198C25.4895 34.181 25.9162 34.5591 26.2354 35.0216L27.1422 36.3355V38.2939C27.1422 38.4338 27.1978 38.5679 27.2967 38.6668C27.3956 38.7657 27.5297 38.8213 27.6695 38.8213C27.8094 38.8213 27.9435 38.7657 28.0424 38.6668C28.1413 38.5679 28.1969 38.4338 28.1969 38.2939V23.9615C28.1969 23.6985 28.3014 23.4462 28.4874 23.2601C28.6734 23.0741 28.9258 22.9696 29.1888 22.9696C29.4519 22.9696 29.7042 23.0741 29.8902 23.2601C30.0763 23.4462 30.1808 23.6985 30.1808 23.9615V33.3225C30.1808 33.374 30.1884 33.4252 30.2033 33.4746V35.6243C30.2033 35.7641 30.2588 35.8983 30.3577 35.9972C30.4566 36.0961 30.5907 36.1516 30.7306 36.1516C30.8705 36.1516 31.0046 36.0961 31.1035 35.9972C31.2024 35.8983 31.2579 35.7641 31.2579 35.6243V32.679C31.2579 32.4703 31.3408 32.2703 31.4883 32.1227C31.6359 31.9752 31.8359 31.8923 32.0446 31.8923C32.2532 31.8923 32.4533 31.9752 32.6008 32.1227C32.7483 32.2703 32.8312 32.4703 32.8312 32.679V33.2766C32.8176 33.3687 32.8107 33.4616 32.8106 33.5546V35.6246C32.8106 35.7645 32.8662 35.8986 32.9651 35.9975C33.064 36.0964 33.1981 36.152 33.338 36.152H33.3483C33.3483 36.152 33.355 36.152 33.3585 36.152C33.4984 36.152 33.6325 36.0964 33.7314 35.9975C33.8303 35.8986 33.8859 35.7645 33.8859 35.6246V33.3709C33.9307 33.1671 34.0493 32.987 34.2189 32.8653C34.3885 32.7436 34.597 32.6889 34.8045 32.7116C35.012 32.7344 35.2037 32.833 35.3429 32.9885C35.4821 33.1441 35.5589 33.3456 35.5585 33.5543V36.1712C35.5585 36.3111 35.6141 36.4452 35.713 36.5441C35.8119 36.643 35.946 36.6986 36.0859 36.6986C36.2257 36.6986 36.3599 36.643 36.4588 36.5441C36.5577 36.4452 36.6132 36.3111 36.6132 36.1712V34.3808C36.6121 34.2674 36.6334 34.1549 36.676 34.0498C36.7186 33.9447 36.7816 33.8491 36.8614 33.7686C36.9412 33.688 37.0361 33.624 37.1408 33.5803C37.2454 33.5367 37.3577 33.5142 37.4711 33.5142C37.5845 33.5142 37.6967 33.5367 37.8014 33.5803C37.906 33.624 38.001 33.688 38.0808 33.7686C38.1605 33.8491 38.2235 33.9447 38.2661 34.0498C38.3087 34.1549 38.3301 34.2674 38.3289 34.3808L38.3291 40.333ZM41.5165 36.1996C41.507 36.1996 41.4974 36.1996 41.4878 36.2005L39.3838 36.3147V34.3811C39.3842 34.0381 39.2923 33.7013 39.1177 33.406C38.9431 33.1108 38.6923 32.868 38.3915 32.7031C38.0907 32.5382 37.751 32.4573 37.4082 32.4689C37.0654 32.4806 36.732 32.5843 36.4431 32.7691C36.3322 32.5241 36.1706 32.3054 35.9689 32.1275C35.7673 31.9496 35.5301 31.8166 35.2731 31.7372C35.0162 31.6578 34.7453 31.6339 34.4784 31.6671C34.2116 31.7002 33.9548 31.7897 33.725 31.9295C33.625 31.7032 33.4803 31.4995 33.2995 31.3306C33.1187 31.1618 32.9055 31.0313 32.673 30.947C32.4404 30.8626 32.1931 30.8263 31.9461 30.8401C31.6991 30.8538 31.4574 30.9175 31.2356 31.0271V23.9615C31.2356 23.4187 31.02 22.8982 30.6362 22.5144C30.2524 22.1305 29.7318 21.9149 29.189 21.9149C28.6462 21.9149 28.1256 22.1305 27.7418 22.5144C27.358 22.8982 27.1424 23.4187 27.1424 23.9615V34.4788L27.1035 34.4225C26.6874 33.8194 26.1311 33.3264 25.4823 32.9858C24.8335 32.6453 24.1117 32.4674 23.3789 32.4675C23.2023 32.4675 23.0286 32.5117 22.8735 32.5961C22.7183 32.6804 22.5868 32.8022 22.4908 32.9504C22.3948 33.0986 22.3374 33.2685 22.3238 33.4445C22.3102 33.6206 22.3409 33.7972 22.413 33.9584L22.5018 34.1572C22.8185 34.8661 23.088 35.5951 23.3087 36.3394L3.48328 36.1988C3.11911 36.1984 2.76997 36.0535 2.51243 35.7961C2.25488 35.5386 2.10993 35.1895 2.10938 34.8253V9.70146H42.8906V34.8253C42.8902 35.1896 42.7452 35.5389 42.4876 35.7964C42.2299 36.054 41.8807 36.1988 41.5164 36.1992L41.5165 36.1996Z"/>
  </mask>
  <path d="M41.5164 0.878906H3.48363C2.8397 0.879581 2.22234 1.13566 1.76698 1.59095C1.31162 2.04624 1.05546 2.66357 1.05469 3.3075V34.8251C1.05527 35.4684 1.31087 36.0853 1.76547 36.5405C2.22008 36.9957 2.8366 37.2521 3.47994 37.2536L23.5926 37.3959L24.6114 41.3995C24.6132 41.4066 24.6152 41.4137 24.6173 41.4208C24.8477 42.2031 25.3259 42.8894 25.98 43.3764C26.6341 43.8633 27.4287 44.1247 28.2442 44.1211H35.597C36.6012 44.1197 37.5637 43.7202 38.2736 43.01C38.9835 42.2999 39.3828 41.3371 39.3838 40.333V37.3711L41.5317 37.2539C42.173 37.2492 42.7864 36.9913 43.2384 36.5365C43.6905 36.0816 43.9445 35.4666 43.9453 34.8253V3.3075C43.9445 2.66357 43.6884 2.04624 43.233 1.59095C42.7777 1.13566 42.1603 0.879581 41.5164 0.878906ZM3.48363 1.93359H41.5164C41.8807 1.93394 42.23 2.07879 42.4876 2.33637C42.7452 2.59394 42.8902 2.94319 42.8906 3.3075V8.64677H2.10938V3.3075C2.10982 2.94319 2.25476 2.59394 2.5124 2.33637C2.77003 2.07879 3.11933 1.93394 3.48363 1.93359ZM38.3291 40.333C38.3284 41.0575 38.0404 41.7522 37.5282 42.2646C37.016 42.777 36.3215 43.0654 35.597 43.0664H28.2442C27.6577 43.069 27.0861 42.8816 26.6149 42.5322C26.1438 42.1829 25.7985 41.6903 25.6307 41.1283L24.5145 36.7416C24.2513 35.7087 23.9003 34.7001 23.4652 33.727L23.3789 33.5222C23.9409 33.5222 24.4944 33.6586 24.992 33.9198C25.4895 34.181 25.9162 34.5591 26.2354 35.0216L27.1422 36.3355V38.2939C27.1422 38.4338 27.1978 38.5679 27.2967 38.6668C27.3956 38.7657 27.5297 38.8213 27.6695 38.8213C27.8094 38.8213 27.9435 38.7657 28.0424 38.6668C28.1413 38.5679 28.1969 38.4338 28.1969 38.2939V23.9615C28.1969 23.6985 28.3014 23.4462 28.4874 23.2601C28.6734 23.0741 28.9258 22.9696 29.1888 22.9696C29.4519 22.9696 29.7042 23.0741 29.8902 23.2601C30.0763 23.4462 30.1808 23.6985 30.1808 23.9615V33.3225C30.1808 33.374 30.1884 33.4252 30.2033 33.4746V35.6243C30.2033 35.7641 30.2588 35.8983 30.3577 35.9972C30.4566 36.0961 30.5907 36.1516 30.7306 36.1516C30.8705 36.1516 31.0046 36.0961 31.1035 35.9972C31.2024 35.8983 31.2579 35.7641 31.2579 35.6243V32.679C31.2579 32.4703 31.3408 32.2703 31.4883 32.1227C31.6359 31.9752 31.8359 31.8923 32.0446 31.8923C32.2532 31.8923 32.4533 31.9752 32.6008 32.1227C32.7483 32.2703 32.8312 32.4703 32.8312 32.679V33.2766C32.8176 33.3687 32.8107 33.4616 32.8106 33.5546V35.6246C32.8106 35.7645 32.8662 35.8986 32.9651 35.9975C33.064 36.0964 33.1981 36.152 33.338 36.152H33.3483C33.3483 36.152 33.355 36.152 33.3585 36.152C33.4984 36.152 33.6325 36.0964 33.7314 35.9975C33.8303 35.8986 33.8859 35.7645 33.8859 35.6246V33.3709C33.9307 33.1671 34.0493 32.987 34.2189 32.8653C34.3885 32.7436 34.597 32.6889 34.8045 32.7116C35.012 32.7344 35.2037 32.833 35.3429 32.9885C35.4821 33.1441 35.5589 33.3456 35.5585 33.5543V36.1712C35.5585 36.3111 35.6141 36.4452 35.713 36.5441C35.8119 36.643 35.946 36.6986 36.0859 36.6986C36.2257 36.6986 36.3599 36.643 36.4588 36.5441C36.5577 36.4452 36.6132 36.3111 36.6132 36.1712V34.3808C36.6121 34.2674 36.6334 34.1549 36.676 34.0498C36.7186 33.9447 36.7816 33.8491 36.8614 33.7686C36.9412 33.688 37.0361 33.624 37.1408 33.5803C37.2454 33.5367 37.3577 33.5142 37.4711 33.5142C37.5845 33.5142 37.6967 33.5367 37.8014 33.5803C37.906 33.624 38.001 33.688 38.0808 33.7686C38.1605 33.8491 38.2235 33.9447 38.2661 34.0498C38.3087 34.1549 38.3301 34.2674 38.3289 34.3808L38.3291 40.333ZM41.5165 36.1996C41.507 36.1996 41.4974 36.1996 41.4878 36.2005L39.3838 36.3147V34.3811C39.3842 34.0381 39.2923 33.7013 39.1177 33.406C38.9431 33.1108 38.6923 32.868 38.3915 32.7031C38.0907 32.5382 37.751 32.4573 37.4082 32.4689C37.0654 32.4806 36.732 32.5843 36.4431 32.7691C36.3322 32.5241 36.1706 32.3054 35.9689 32.1275C35.7673 31.9496 35.5301 31.8166 35.2731 31.7372C35.0162 31.6578 34.7453 31.6339 34.4784 31.6671C34.2116 31.7002 33.9548 31.7897 33.725 31.9295C33.625 31.7032 33.4803 31.4995 33.2995 31.3306C33.1187 31.1618 32.9055 31.0313 32.673 30.947C32.4404 30.8626 32.1931 30.8263 31.9461 30.8401C31.6991 30.8538 31.4574 30.9175 31.2356 31.0271V23.9615C31.2356 23.4187 31.02 22.8982 30.6362 22.5144C30.2524 22.1305 29.7318 21.9149 29.189 21.9149C28.6462 21.9149 28.1256 22.1305 27.7418 22.5144C27.358 22.8982 27.1424 23.4187 27.1424 23.9615V34.4788L27.1035 34.4225C26.6874 33.8194 26.1311 33.3264 25.4823 32.9858C24.8335 32.6453 24.1117 32.4674 23.3789 32.4675C23.2023 32.4675 23.0286 32.5117 22.8735 32.5961C22.7183 32.6804 22.5868 32.8022 22.4908 32.9504C22.3948 33.0986 22.3374 33.2685 22.3238 33.4445C22.3102 33.6206 22.3409 33.7972 22.413 33.9584L22.5018 34.1572C22.8185 34.8661 23.088 35.5951 23.3087 36.3394L3.48328 36.1988C3.11911 36.1984 2.76997 36.0535 2.51243 35.7961C2.25488 35.5386 2.10993 35.1895 2.10938 34.8253V9.70146H42.8906V34.8253C42.8902 35.1896 42.7452 35.5389 42.4876 35.7964C42.2299 36.054 41.8807 36.1988 41.5164 36.1992L41.5165 36.1996Z" fill="#222222"/>
  <path d="M41.5164 0.878906H3.48363C2.8397 0.879581 2.22234 1.13566 1.76698 1.59095C1.31162 2.04624 1.05546 2.66357 1.05469 3.3075V34.8251C1.05527 35.4684 1.31087 36.0853 1.76547 36.5405C2.22008 36.9957 2.8366 37.2521 3.47994 37.2536L23.5926 37.3959L24.6114 41.3995C24.6132 41.4066 24.6152 41.4137 24.6173 41.4208C24.8477 42.2031 25.3259 42.8894 25.98 43.3764C26.6341 43.8633 27.4287 44.1247 28.2442 44.1211H35.597C36.6012 44.1197 37.5637 43.7202 38.2736 43.01C38.9835 42.2999 39.3828 41.3371 39.3838 40.333V37.3711L41.5317 37.2539C42.173 37.2492 42.7864 36.9913 43.2384 36.5365C43.6905 36.0816 43.9445 35.4666 43.9453 34.8253V3.3075C43.9445 2.66357 43.6884 2.04624 43.233 1.59095C42.7777 1.13566 42.1603 0.879581 41.5164 0.878906ZM3.48363 1.93359H41.5164C41.8807 1.93394 42.23 2.07879 42.4876 2.33637C42.7452 2.59394 42.8902 2.94319 42.8906 3.3075V8.64677H2.10938V3.3075C2.10982 2.94319 2.25476 2.59394 2.5124 2.33637C2.77003 2.07879 3.11933 1.93394 3.48363 1.93359ZM38.3291 40.333C38.3284 41.0575 38.0404 41.7522 37.5282 42.2646C37.016 42.777 36.3215 43.0654 35.597 43.0664H28.2442C27.6577 43.069 27.0861 42.8816 26.6149 42.5322C26.1438 42.1829 25.7985 41.6903 25.6307 41.1283L24.5145 36.7416C24.2513 35.7087 23.9003 34.7001 23.4652 33.727L23.3789 33.5222C23.9409 33.5222 24.4944 33.6586 24.992 33.9198C25.4895 34.181 25.9162 34.5591 26.2354 35.0216L27.1422 36.3355V38.2939C27.1422 38.4338 27.1978 38.5679 27.2967 38.6668C27.3956 38.7657 27.5297 38.8213 27.6695 38.8213C27.8094 38.8213 27.9435 38.7657 28.0424 38.6668C28.1413 38.5679 28.1969 38.4338 28.1969 38.2939V23.9615C28.1969 23.6985 28.3014 23.4462 28.4874 23.2601C28.6734 23.0741 28.9258 22.9696 29.1888 22.9696C29.4519 22.9696 29.7042 23.0741 29.8902 23.2601C30.0763 23.4462 30.1808 23.6985 30.1808 23.9615V33.3225C30.1808 33.374 30.1884 33.4252 30.2033 33.4746V35.6243C30.2033 35.7641 30.2588 35.8983 30.3577 35.9972C30.4566 36.0961 30.5907 36.1516 30.7306 36.1516C30.8705 36.1516 31.0046 36.0961 31.1035 35.9972C31.2024 35.8983 31.2579 35.7641 31.2579 35.6243V32.679C31.2579 32.4703 31.3408 32.2703 31.4883 32.1227C31.6359 31.9752 31.8359 31.8923 32.0446 31.8923C32.2532 31.8923 32.4533 31.9752 32.6008 32.1227C32.7483 32.2703 32.8312 32.4703 32.8312 32.679V33.2766C32.8176 33.3687 32.8107 33.4616 32.8106 33.5546V35.6246C32.8106 35.7645 32.8662 35.8986 32.9651 35.9975C33.064 36.0964 33.1981 36.152 33.338 36.152H33.3483C33.3483 36.152 33.355 36.152 33.3585 36.152C33.4984 36.152 33.6325 36.0964 33.7314 35.9975C33.8303 35.8986 33.8859 35.7645 33.8859 35.6246V33.3709C33.9307 33.1671 34.0493 32.987 34.2189 32.8653C34.3885 32.7436 34.597 32.6889 34.8045 32.7116C35.012 32.7344 35.2037 32.833 35.3429 32.9885C35.4821 33.1441 35.5589 33.3456 35.5585 33.5543V36.1712C35.5585 36.3111 35.6141 36.4452 35.713 36.5441C35.8119 36.643 35.946 36.6986 36.0859 36.6986C36.2257 36.6986 36.3599 36.643 36.4588 36.5441C36.5577 36.4452 36.6132 36.3111 36.6132 36.1712V34.3808C36.6121 34.2674 36.6334 34.1549 36.676 34.0498C36.7186 33.9447 36.7816 33.8491 36.8614 33.7686C36.9412 33.688 37.0361 33.624 37.1408 33.5803C37.2454 33.5367 37.3577 33.5142 37.4711 33.5142C37.5845 33.5142 37.6967 33.5367 37.8014 33.5803C37.906 33.624 38.001 33.688 38.0808 33.7686C38.1605 33.8491 38.2235 33.9447 38.2661 34.0498C38.3087 34.1549 38.3301 34.2674 38.3289 34.3808L38.3291 40.333ZM41.5165 36.1996C41.507 36.1996 41.4974 36.1996 41.4878 36.2005L39.3838 36.3147V34.3811C39.3842 34.0381 39.2923 33.7013 39.1177 33.406C38.9431 33.1108 38.6923 32.868 38.3915 32.7031C38.0907 32.5382 37.751 32.4573 37.4082 32.4689C37.0654 32.4806 36.732 32.5843 36.4431 32.7691C36.3322 32.5241 36.1706 32.3054 35.9689 32.1275C35.7673 31.9496 35.5301 31.8166 35.2731 31.7372C35.0162 31.6578 34.7453 31.6339 34.4784 31.6671C34.2116 31.7002 33.9548 31.7897 33.725 31.9295C33.625 31.7032 33.4803 31.4995 33.2995 31.3306C33.1187 31.1618 32.9055 31.0313 32.673 30.947C32.4404 30.8626 32.1931 30.8263 31.9461 30.8401C31.6991 30.8538 31.4574 30.9175 31.2356 31.0271V23.9615C31.2356 23.4187 31.02 22.8982 30.6362 22.5144C30.2524 22.1305 29.7318 21.9149 29.189 21.9149C28.6462 21.9149 28.1256 22.1305 27.7418 22.5144C27.358 22.8982 27.1424 23.4187 27.1424 23.9615V34.4788L27.1035 34.4225C26.6874 33.8194 26.1311 33.3264 25.4823 32.9858C24.8335 32.6453 24.1117 32.4674 23.3789 32.4675C23.2023 32.4675 23.0286 32.5117 22.8735 32.5961C22.7183 32.6804 22.5868 32.8022 22.4908 32.9504C22.3948 33.0986 22.3374 33.2685 22.3238 33.4445C22.3102 33.6206 22.3409 33.7972 22.413 33.9584L22.5018 34.1572C22.8185 34.8661 23.088 35.5951 23.3087 36.3394L3.48328 36.1988C3.11911 36.1984 2.76997 36.0535 2.51243 35.7961C2.25488 35.5386 2.10993 35.1895 2.10938 34.8253V9.70146H42.8906V34.8253C42.8902 35.1896 42.7452 35.5389 42.4876 35.7964C42.2299 36.054 41.8807 36.1988 41.5164 36.1992L41.5165 36.1996Z" stroke="black" stroke-width="0.4" mask="url(#path-10-outside-1)"/>
  <path d="M5.46669 7.345H5.4668C5.88638 7.345 6.29655 7.22057 6.64543 6.98746C6.9943 6.75435 7.26622 6.42302 7.42679 6.03537C7.58736 5.64772 7.62937 5.22116 7.54751 4.80963C7.46566 4.3981 7.2636 4.02009 6.96691 3.7234C6.67022 3.4267 6.2922 3.22465 5.88068 3.14279C5.46915 3.06093 5.04259 3.10295 4.65494 3.26352C4.26729 3.42409 3.93596 3.696 3.70285 4.04488C3.46974 4.39375 3.34531 4.80392 3.34531 5.22351L3.34531 5.22362C3.3459 5.78606 3.56959 6.3253 3.9673 6.72301C4.36501 7.12072 4.90425 7.34441 5.46669 7.345ZM5.4668 4.35742C5.63823 4.35742 5.80582 4.40825 5.94836 4.5035C6.0909 4.59874 6.202 4.73412 6.26761 4.89251C6.33322 5.05089 6.35038 5.22518 6.31694 5.39332C6.28349 5.56146 6.20094 5.71591 6.07971 5.83713C5.95849 5.95836 5.80404 6.04091 5.6359 6.07436C5.46776 6.1078 5.29347 6.09064 5.13509 6.02503C4.9767 5.95942 4.84133 5.84832 4.74608 5.70578C4.65084 5.56324 4.6 5.39565 4.6 5.22421C4.60023 4.9944 4.69163 4.77406 4.85413 4.61155C5.01664 4.44905 5.23698 4.35765 5.4668 4.35742Z" fill="#222222" stroke="black" stroke-width="0.2"/>
  <path d="M10.7958 7.345H10.7959C11.2155 7.345 11.6257 7.22057 11.9745 6.98746C12.3234 6.75435 12.5953 6.42302 12.7559 6.03537C12.9165 5.64772 12.9585 5.22116 12.8766 4.80963C12.7948 4.3981 12.5927 4.02009 12.296 3.7234C11.9993 3.4267 11.6213 3.22465 11.2098 3.14279C10.7983 3.06093 10.3717 3.10295 9.98404 3.26352C9.59639 3.42409 9.26506 3.696 9.03195 4.04488C8.79884 4.39375 8.67441 4.80392 8.67441 5.22351L8.67441 5.22362C8.675 5.78606 8.89869 6.3253 9.2964 6.72301C9.69411 7.12072 10.2333 7.34441 10.7958 7.345ZM10.7959 4.35742C10.9673 4.35742 11.1349 4.40825 11.2775 4.5035C11.42 4.59874 11.5311 4.73412 11.5967 4.89251C11.6623 5.05089 11.6795 5.22518 11.646 5.39332C11.6126 5.56146 11.53 5.71591 11.4088 5.83713C11.2876 5.95836 11.1331 6.04091 10.965 6.07436C10.7969 6.1078 10.6226 6.09064 10.4642 6.02503C10.3058 5.95942 10.1704 5.84832 10.0752 5.70578C9.97994 5.56324 9.9291 5.39565 9.9291 5.22421C9.92933 4.9944 10.0207 4.77406 10.1832 4.61155C10.3457 4.44905 10.5661 4.35765 10.7959 4.35742Z" fill="#222222" stroke="black" stroke-width="0.2"/>
  <path d="M16.1249 7.345H16.125C16.5446 7.345 16.9548 7.22057 17.3036 6.98746C17.6525 6.75435 17.9244 6.42302 18.085 6.03537C18.2456 5.64772 18.2876 5.22116 18.2057 4.80963C18.1239 4.3981 17.9218 4.02009 17.6251 3.7234C17.3284 3.4267 16.9504 3.22465 16.5389 3.14279C16.1274 3.06093 15.7008 3.10295 15.3131 3.26352C14.9255 3.42409 14.5942 3.696 14.3611 4.04488C14.1279 4.39375 14.0035 4.80392 14.0035 5.22351L14.0035 5.22362C14.0041 5.78606 14.2278 6.3253 14.6255 6.72301C15.0232 7.12072 15.5624 7.34441 16.1249 7.345ZM16.125 4.35742C16.2964 4.35742 16.464 4.40825 16.6066 4.5035C16.7491 4.59874 16.8602 4.73412 16.9258 4.89251C16.9914 5.05089 17.0086 5.22518 16.9751 5.39332C16.9417 5.56146 16.8591 5.71591 16.7379 5.83713C16.6167 5.95836 16.4622 6.04091 16.2941 6.07436C16.126 6.1078 15.9517 6.09064 15.7933 6.02503C15.6349 5.95942 15.4995 5.84833 15.4043 5.70578C15.309 5.56324 15.2582 5.39565 15.2582 5.22421C15.2584 4.9944 15.3498 4.77406 15.5123 4.61155C15.6748 4.44905 15.8952 4.35765 16.125 4.35742Z" fill="#222222" stroke="black" stroke-width="0.2"/>
  <path d="M23.9941 5.75131H41.1269C41.2933 5.75131 41.4529 5.68521 41.5705 5.56756C41.6882 5.44991 41.7543 5.29035 41.7543 5.12396C41.7543 4.95758 41.6882 4.79801 41.5705 4.68036C41.4529 4.56271 41.2933 4.49662 41.1269 4.49662H23.9941C23.8278 4.49662 23.6682 4.56271 23.5505 4.68036C23.4329 4.79801 23.3668 4.95758 23.3668 5.12396C23.3668 5.29035 23.4329 5.44991 23.5505 5.56756C23.6682 5.68521 23.8278 5.75131 23.9941 5.75131Z" fill="#222222" stroke="black" stroke-width="0.2"/>
</svg>
