<svg width="19" height="19" viewBox="0 0 19 19" fill="none" xmlns="http://www.w3.org/2000/svg">
  <path d="M9.46374 0C4.23706 0 0 4.25329 0 9.49999C0 14.7467 4.23706 19 9.46374 19C14.6904 19 18.9275 14.7467 18.9275 9.49999C18.9219 4.25564 14.6881 0.00560617 9.46374 0ZM13.4493 9.80269C13.3838 9.93461 13.2773 10.0416 13.1458 10.1073V10.1107L7.73797 12.825C7.40399 12.9925 6.998 12.8566 6.83109 12.5213C6.78364 12.426 6.75921 12.3208 6.7598 12.2143V6.78573C6.75964 6.41095 7.06213 6.10703 7.43548 6.10683C7.54048 6.10679 7.64406 6.13128 7.73797 6.1784L13.1458 8.8927C13.48 9.05985 13.6158 9.46727 13.4493 9.80269Z" fill="#222222"/>
</svg>
