<svg xmlns="http://www.w3.org/2000/svg" width="32" height="32" fill="none" viewBox="0 0 32 32">
    <path fill="#7D7283" fill-rule="evenodd" d="M7.75 6.75c-.414.414-.414 1.086 0 1.5l1 1c-2.614 1.771-4.292 4.167-5.124 5.577-.432.73-.432 1.615 0 2.346C5.066 19.611 9.036 25 16 25c2.633 0 4.838-.77 6.64-1.86l2.11 2.11c.414.414 1.086.414 1.5 0 .414-.414.414-1.086 0-1.5l-17-17c-.414-.414-1.086-.414-1.5 0zm13.424 14.924l-2.607-2.607c-.694.582-1.59.933-2.567.933-2.21 0-4-1.79-4-4 0-.977.35-1.873.933-2.567l-2.736-2.736c-2.427 1.528-4.021 3.745-4.85 5.147-.034.058-.045.111-.045.156s.011.098.046.156C6.714 18.469 10.166 23 16 23c2 0 3.721-.533 5.174-1.326zm5.478-5.518c-.465.787-1.17 1.83-2.13 2.866l1.414 1.414c1.131-1.211 1.938-2.415 2.438-3.263.432-.73.432-1.615 0-2.346C26.934 12.389 22.965 7 16 7c-1.116 0-2.155.138-3.12.38l1.71 1.71c.454-.059.924-.09 1.41-.09 5.834 0 9.286 4.53 10.652 6.844.035.058.046.111.046.156s-.011.098-.046.156z" clip-rule="evenodd"/>
</svg>
