<svg width="14" height="18" viewBox="0 0 14 18" fill="none" xmlns="http://www.w3.org/2000/svg">
  <path d="M6.0563 17.6368C0.948164 10.2316 0 9.47155 0 6.75C0 3.02207 3.02207 0 6.75 0C10.4779 0 13.5 3.02207 13.5 6.75C13.5 9.47155 12.5518 10.2316 7.4437 17.6368C7.10849 18.1211 6.39148 18.121 6.0563 17.6368ZM6.75 9.5625C8.30331 9.5625 9.5625 8.30331 9.5625 6.75C9.5625 5.19669 8.30331 3.9375 6.75 3.9375C5.19669 3.9375 3.9375 5.19669 3.9375 6.75C3.9375 8.30331 5.19669 9.5625 6.75 9.5625Z" fill="#FF8D27"/>
</svg>

