<svg width="16" height="15" viewBox="0 0 16 15" fill="none" xmlns="http://www.w3.org/2000/svg">
  <path d="M14.8526 0H1.14737C0.514797 0 0 0.535786 0 1.19449V9.83849C0 10.4971 0.514797 11.033 1.14737 11.033H6.0043V12.8879H3.88727C3.56227 12.8879 3.29832 13.1623 3.29832 13.5013V14.3867C3.29832 14.7256 3.56235 15 3.88727 15H12.1128C12.4378 15 12.7017 14.7256 12.7017 14.3867V13.5013C12.7017 13.1623 12.4377 12.8879 12.1128 12.8879H9.99573V11.033H14.8526C15.4851 11.033 16 10.4972 16 9.83849V1.19449C16 0.535786 15.4852 0 14.8526 0ZM1.11687 9.83849L1.14734 1.16244L14.8831 1.19449V9.87L1.11687 9.83849ZM15.4416 9.14091C15.2823 9.14091 15.153 9.00638 15.153 8.84099C15.153 8.67493 15.2823 8.54063 15.4416 8.54063C15.6009 8.54063 15.73 8.67487 15.73 8.84099C15.73 9.00644 15.6009 9.14091 15.4416 9.14091ZM15.4416 7.8886C15.2823 7.8886 15.153 7.75436 15.153 7.5883C15.153 7.42287 15.2823 7.2884 15.4416 7.2884C15.6009 7.2884 15.73 7.42293 15.73 7.5883C15.73 7.75436 15.6009 7.8886 15.4416 7.8886Z" fill="#222222"/>
</svg>
