<svg width="19" height="15" viewBox="0 0 19 15" fill="none" xmlns="http://www.w3.org/2000/svg">
<path d="M4.75 2.45192V1.00962C4.75 0.690974 5.01581 0.432692 5.34375 0.432692H18.4062C18.7342 0.432692 19 0.690974 19 1.00962V2.45192C19 2.77056 18.7342 3.02885 18.4062 3.02885H5.34375C5.01581 3.02885 4.75 2.77056 4.75 2.45192ZM5.34375 8.79808H18.4062C18.7342 8.79808 19 8.5398 19 8.22115V6.77885C19 6.4602 18.7342 6.20192 18.4062 6.20192H5.34375C5.01581 6.20192 4.75 6.4602 4.75 6.77885V8.22115C4.75 8.5398 5.01581 8.79808 5.34375 8.79808ZM5.34375 14.5673H18.4062C18.7342 14.5673 19 14.309 19 13.9904V12.5481C19 12.2294 18.7342 11.9712 18.4062 11.9712H5.34375C5.01581 11.9712 4.75 12.2294 4.75 12.5481V13.9904C4.75 14.309 5.01581 14.5673 5.34375 14.5673ZM0.59375 3.46154H2.96875C3.29669 3.46154 3.5625 3.20326 3.5625 2.88462V0.576923C3.5625 0.258281 3.29669 0 2.96875 0H0.59375C0.265814 0 0 0.258281 0 0.576923V2.88462C0 3.20326 0.265814 3.46154 0.59375 3.46154ZM0.59375 9.23077H2.96875C3.29669 9.23077 3.5625 8.97249 3.5625 8.65385V6.34615C3.5625 6.02751 3.29669 5.76923 2.96875 5.76923H0.59375C0.265814 5.76923 0 6.02751 0 6.34615V8.65385C0 8.97249 0.265814 9.23077 0.59375 9.23077ZM0.59375 15H2.96875C3.29669 15 3.5625 14.7417 3.5625 14.4231V12.1154C3.5625 11.7967 3.29669 11.5385 2.96875 11.5385H0.59375C0.265814 11.5385 0 11.7967 0 12.1154V14.4231C0 14.7417 0.265814 15 0.59375 15Z" fill="#555555"/>
</svg>
