<svg width="45" height="45" viewBox="0 0 45 45" fill="none" xmlns="http://www.w3.org/2000/svg">
  <g clip-path="url(#clip0)">
    <path d="M42.1881 0H2.81345C1.26018 0 0.000976562 1.2592 0.000976562 2.81248V34.6873C0.000976562 36.2405 1.26018 37.4997 2.81345 37.4997H25.3133V35.6248H2.81345C2.29569 35.6248 1.87593 35.205 1.87593 34.6873V2.81248C1.87593 2.29472 2.29569 1.87496 2.81345 1.87496H42.1881C42.7059 1.87496 43.1257 2.29472 43.1257 2.81248V34.6873C43.1257 35.205 42.7059 35.6248 42.1881 35.6248H40.3132V37.4997H42.1881C43.7414 37.4997 45.0006 36.2405 45.0006 34.6873V2.81248C45.0006 1.2592 43.7414 0 42.1881 0Z" fill="black"/>
    <path d="M39.3748 9.37502C37.3037 9.37502 35.6248 7.69606 35.6248 5.62502C35.6248 5.10726 35.205 4.6875 34.6872 4.6875H10.3125C9.79478 4.6875 9.37502 5.10726 9.37502 5.62502C9.37502 7.69606 7.69606 9.37502 5.62502 9.37502C5.10726 9.37502 4.6875 9.79478 4.6875 10.3125V27.1874C4.6875 27.7052 5.10726 28.1249 5.62502 28.1249C7.69606 28.1249 9.37502 29.8039 9.37502 31.8749C9.37502 32.3927 9.79478 32.8125 10.3125 32.8125H22.5V30.9373H11.1722C10.769 28.5785 8.92133 26.7309 6.56254 26.3277V11.1722C8.92133 10.769 10.769 8.92133 11.1722 6.56254H33.8277C34.2309 8.92133 36.0785 10.769 38.4373 11.1722V18.75H40.3123V10.3125C40.3123 9.7947 39.8925 9.37502 39.3748 9.37502Z" fill="black"/>
    <path d="M32.8124 19.6875C28.1526 19.6875 24.375 23.4651 24.375 28.1249C24.375 32.7848 28.1526 36.5624 32.8124 36.5624C37.47 36.5567 41.2442 32.7825 41.2499 28.1249C41.2499 23.4651 37.4723 19.6875 32.8124 19.6875ZM32.8124 34.6874C29.1881 34.6874 26.25 31.7493 26.25 28.1249C26.25 24.5006 29.188 21.5625 32.8124 21.5625C36.4351 21.5666 39.3708 24.5023 39.3749 28.1249C39.3748 31.7493 36.4368 34.6874 32.8124 34.6874Z" fill="black"/>
    <path d="M36.5624 33.7495V42.111L33.3983 39.5798C33.0558 39.3056 32.569 39.3056 32.2265 39.5798L29.0625 42.111V33.7495H27.1875V44.0619C27.1874 44.275 27.2599 44.4818 27.3932 44.6482C27.7168 45.0524 28.3068 45.1177 28.7109 44.7941L32.8125 41.5129L36.914 44.7941C37.0803 44.9271 37.287 44.9995 37.5 44.9994C38.0177 44.9994 38.4375 44.5797 38.4375 44.0619V33.7495H36.5624Z" fill="black"/>
    <path d="M31.8748 9.375H13.125C12.6073 9.375 12.1875 9.79476 12.1875 10.3125V14.0624C12.1875 14.5802 12.6073 15 13.125 15H31.8748C32.3926 15 32.8124 14.5802 32.8124 14.0624V10.3124C32.8124 9.79467 32.3926 9.375 31.8748 9.375ZM30.9373 13.1249H14.0625V11.25H30.9373V13.1249Z" fill="black"/>
    <path d="M13.125 17.8125H11.25V19.6875H13.125V17.8125Z" fill="black"/>
    <path d="M16.875 17.8125H15V19.6875H16.875V17.8125Z" fill="black"/>
    <path d="M22.4999 21.5625H11.25V23.4374H22.4999V21.5625Z" fill="black"/>
    <path d="M32.8124 23.4375C30.2236 23.4375 28.125 25.5361 28.125 28.1249C28.125 30.7137 30.2236 32.8124 32.8124 32.8124C35.4 32.8093 37.4968 30.7124 37.4999 28.1249C37.4999 25.5361 35.4012 23.4375 32.8124 23.4375ZM32.8124 30.9374C31.2592 30.9374 30 29.6782 30 28.1249C30 26.5717 31.2592 25.3125 32.8124 25.3125C34.3657 25.3125 35.6249 26.5717 35.6249 28.1249C35.6249 29.6782 34.3657 30.9374 32.8124 30.9374Z" fill="black"/>
    <path d="M6.56246 30.9375H4.6875V32.8125H6.56246V30.9375Z" fill="black"/>
    <path d="M40.3125 4.6875H38.4375V6.56246H40.3125V4.6875Z" fill="black"/>
    <path d="M6.56246 4.6875H4.6875V6.56246H6.56246V4.6875Z" fill="black"/>
  </g>
  <defs>
    <clipPath id="clip0">
      <rect width="45" height="45" fill="white"/>
    </clipPath>
  </defs>
</svg>
