<svg width="45" height="46" viewBox="0 0 45 46" fill="none" xmlns="http://www.w3.org/2000/svg">
<g clip-path="url(#clip0)">
<path d="M18.2382 7.91801L18.2382 7.91802C18.5348 8.21409 18.5348 8.69423 18.2382 8.99024L16.1666 11.0585L16.1666 11.0585C15.8701 11.3545 15.3895 11.3543 15.0931 11.0585L15.0931 11.0585L13.7155 9.6831C13.4189 9.38702 13.4189 8.90699 13.7156 8.6109L18.2382 7.91801ZM18.2382 7.91801C17.9417 7.62203 17.4611 7.62201 17.1647 7.91802L15.6298 9.4504M18.2382 7.91801L15.6298 9.4504M15.6298 9.4504L14.7891 8.61089L14.789 8.61089C14.4926 8.31491 14.012 8.31488 13.7156 8.61088L15.6298 9.4504Z" fill="black" stroke="black" stroke-width="0.2"/>
<path d="M15.6298 15.3863L14.7891 14.5468L14.789 14.5468C14.4926 14.2508 14.012 14.2507 13.7156 14.5468L15.6298 15.3863ZM15.6298 15.3863L17.1647 13.8539C17.4611 13.5579 17.9417 13.5579 18.2382 13.8539C18.5348 14.1499 18.5348 14.6301 18.2382 14.9261L16.1666 16.9944L16.1666 16.9944C15.8701 17.2904 15.3895 17.2902 15.0931 16.9944L15.0931 16.9944L13.7155 15.619C13.4189 15.3229 13.4189 14.8429 13.7155 14.5468L15.6298 15.3863Z" fill="black" stroke="black" stroke-width="0.2"/>
<path d="M18.2382 19.9104L18.2382 19.9104C18.5348 20.2065 18.5348 20.6867 18.2382 20.9827L16.1666 23.0509L16.1666 23.0509C15.8701 23.3469 15.3895 23.3467 15.0931 23.0509L15.0931 23.0509L13.7155 21.6755C13.4189 21.3794 13.4189 20.8994 13.7156 20.6033M18.2382 19.9104L18.1676 19.9812C18.425 20.2382 18.425 20.655 18.1676 20.9119L16.096 22.9802C15.8385 23.2372 15.4211 23.237 15.1637 22.9802L13.7861 21.6048C13.5287 21.3477 13.5287 20.9311 13.7862 20.6741C14.0436 20.4171 14.461 20.4171 14.7184 20.6741L15.6298 21.5841L15.5592 21.5134L15.6298 21.4428M18.2382 19.9104C17.9417 19.6145 17.4611 19.6144 17.1647 19.9104L15.6298 21.4428M18.2382 19.9104L15.6298 21.5841L15.7005 21.5134L15.6298 21.4428M13.7156 20.6033L13.7862 20.6741L13.7156 20.6033C13.7156 20.6033 13.7156 20.6033 13.7156 20.6033ZM13.7156 20.6033C14.012 20.3073 14.4926 20.3073 14.789 20.6033L14.7891 20.6033L15.6298 21.4428" fill="black" stroke="black" stroke-width="0.2"/>
<path d="M15.0851 0.339887L15.085 0.339913L9.96799 5.44875C9.83241 5.58411 9.74564 5.77891 9.74564 5.98485V10.0271H6.2861C4.17844 10.0271 2.46352 11.739 2.46352 13.8437V36.7855C2.46352 37.6209 2.74458 38.4077 3.21998 39.0473H1.17161C0.470572 39.0473 -0.0990006 39.6189 -0.0990006 40.3211V42.0947C-0.0990006 43.8318 1.30556 45.2458 3.03364 45.2458H41.9682C43.6962 45.2458 45.1008 43.8318 45.1008 42.0948V40.3212C45.1008 39.6189 44.5312 39.0474 43.8302 39.0474H41.782C42.2573 38.4078 42.5385 37.621 42.5385 36.7856V27.3227C42.5385 26.9039 42.1985 26.5646 41.7793 26.5646C41.3601 26.5646 41.0201 26.9039 41.0201 27.3227V36.7855C41.0201 37.8838 40.2129 38.8472 39.134 39.0473H5.86779C4.78897 38.8472 3.98178 37.8839 3.98178 36.7855V13.8438C3.98178 12.5756 5.01535 11.5435 6.28601 11.5435H9.74555V12.7543H6.52419C5.80264 12.7543 5.21544 13.3403 5.21544 14.0612V36.5339C5.21544 37.2548 5.80264 37.8408 6.52419 37.8408H38.4775C39.1991 37.8408 39.7863 37.2548 39.7863 36.5339V14.0611C39.7863 13.3402 39.1991 12.7542 38.4775 12.7542H35.2563V11.5434H38.7158C39.9865 11.5434 41.02 12.5755 41.02 13.8437V24.2515C41.02 24.6703 41.36 25.0096 41.7792 25.0096C42.1984 25.0096 42.5384 24.6703 42.5384 24.2515V13.8438C42.5384 11.7391 40.8235 10.0272 38.7158 10.0272H35.2563V2.02798C35.2563 0.974455 34.398 0.117896 33.3433 0.117896H24.039C23.6198 0.117896 23.2798 0.457186 23.2798 0.876014C23.2798 1.29484 23.6198 1.63413 24.039 1.63413H33.3433C33.561 1.63413 33.7379 1.811 33.7379 2.0279V32.353C33.7379 32.5589 33.57 32.7268 33.3634 32.7268H11.6385C11.4319 32.7268 11.264 32.5589 11.264 32.353V32.3472V32.3408V32.3339V32.3265V32.3185V32.3101V32.3012V32.2917V32.2817V32.2713V32.2603V32.2489V32.2369V32.2244V32.2115V32.1981V32.1841V32.1697V32.1548V32.1395V32.1236V32.1073V32.0904V32.0731V32.0554V32.0371V32.0184V31.9993V31.9796V31.9595V31.939V31.918V31.8965V31.8746V31.8522V31.8294V31.8061V31.7824V31.7582V31.7336V31.7086V31.6831V31.6571V31.6308V31.604V31.5768V31.5491V31.5211V31.4926V31.4637V31.4343V31.4046V31.3744V31.3438V31.3128V31.2814V31.2496V31.2174V31.1848V31.1517V31.1183V31.0845V31.0503V31.0157V30.9807V30.9453V30.9095V30.8734V30.8368V30.7999V30.7626V30.7249V30.6868V30.6484V30.6096V30.5704V30.5309V30.491V30.4508V30.4101V30.3691V30.3278V30.2861V30.2441V30.2017V30.1589V30.1158V30.0724V30.0286V29.9845V29.94V29.8953V29.8501V29.8047V29.7589V29.7128V29.6663V29.6195V29.5725V29.525V29.4773V29.4293V29.3809V29.3322V29.2833V29.234V29.1844V29.1345V29.0843V29.0338V28.983V28.9319V28.8805V28.8288V28.7769V28.7246V28.6721V28.6192V28.5661V28.5128V28.4591V28.4052V28.3509V28.2965V28.2417V28.1867V28.1314V28.0759V28.0201V27.964V27.9077V27.8511V27.7943V27.7372V27.6799V27.6223V27.5645V27.5064V27.4481V27.3895V27.3308V27.2717V27.2125V27.153V27.0933V27.0334V26.9732V26.9128V26.8522V26.7914V26.7304V26.6691V26.6077V26.546V26.4841V26.422V26.3597V26.2972V26.2345V26.1717V26.1086V26.0453V25.9818V25.9182V25.8543V25.7903V25.726V25.6616V25.5971V25.5323V25.4674V25.4023V25.337V25.2715V25.2059V25.1401V25.0742V25.0081V24.9418V24.8754V24.8088V24.7421V24.6752V24.6082V24.541V24.4737V24.4062V24.3386V24.2708V24.2029V24.1349V24.0668V23.9985V23.9301V23.8615V23.7929V23.7241V23.6552V23.5861V23.517V23.4477V23.3784V23.3089V23.2393V23.1696V23.0998V23.0299V22.9599V22.8898V22.8196V22.7493V22.6789V22.6084V22.5379V22.4672V22.3965V22.3257V22.2548V22.1838V22.1128V22.0416V21.9705V21.8992V21.8279V21.7565V21.685V21.6135V21.5419V21.4702V21.3985V21.3268V21.255V21.1831V21.1112V21.0393V20.9673V20.8953V20.8232V20.7511V20.679V20.6068V20.5346V20.4623V20.3901V20.3178V20.2455V20.1732V20.1008V20.0284V19.956V19.8837V19.8112V19.7388V19.6664V19.594V19.5216V19.4491V19.3767V19.3043V19.2318V19.1594V19.087V19.0146V18.9423V18.8699V18.7976V18.7252V18.6529V18.5806V18.5084V18.4362V18.364V18.2918V18.2197V18.1476V18.0755V18.0035V17.9315V17.8596V17.7877V17.7159V17.6441V17.5723V17.5007V17.429V17.3575V17.286V17.2145V17.1431V17.0718V17.0006V16.9294V16.8583V16.7873V16.7163V16.6455V16.5747V16.504V16.4333V16.3628V16.2923V16.222V16.1517V16.0815V16.0115V15.9415V15.8716V15.8019V15.7322V15.6626V15.5932V15.5238V15.4546V15.3855V15.3165V15.2476V15.1789V15.1103V15.0418V14.9734V14.9051V14.837V14.769V14.7012V14.6335V14.5659V14.4985V14.4312V14.3641V14.2971V14.2302V14.1636V14.097V14.0306V13.9644V13.8984V13.8325V13.7667V13.7012V13.6358V13.5705V13.5055V13.4406V13.3759V13.3114V13.247V13.1828V13.1189V13.0551V12.9915V12.928V12.8648V12.8018V12.739V12.6763V12.6139V12.5517V12.4896V12.4278V12.3662V12.3048V12.2436V12.1826V12.1219V12.0613V12.001V11.9409V11.8811V11.8214V11.762V11.7028V11.6439V11.5852V11.5267V11.4685V11.4105V11.3527V11.2952V11.238V11.181V11.1242V11.0677V11.0114V10.9555V10.8997V10.8443V10.789V10.7341V10.6794V10.625V10.5709V10.517V10.4635V10.4102V10.3571V10.3044V10.2519V10.1998V10.1479V10.0963V10.045V9.99399V9.94328V9.89287V9.84276V9.79295V9.74345V9.69425V9.64536V9.59678V9.54851V9.50056V9.45293V9.40561V9.35861V9.31194V9.26559V9.21957V9.17388V9.12851V9.08348V9.03879V8.99443V8.95041V8.90673V8.8634V8.82041V8.77776V8.73547V8.69353V8.65194V8.6107V8.56983V8.52931V8.48915V8.44936V8.40993V8.37087V8.33218V8.29386V8.25592V8.21834V8.18115V8.14434V8.10791V8.07186V8.0362V8.00092V7.96604V7.93155V7.89745V7.86374V7.83044V7.79753V7.76503V7.73293V7.70124V7.66995V7.63908V7.60862V7.57857V7.54894V7.51972V7.49093V7.46256V7.43461V7.40709V7.38V7.35334V7.32711V7.30131V7.27596V7.25104V7.22656V7.20252V7.17893V7.15578V7.13309V7.11084V7.08905V7.06771V7.04683V7.02641V7.00645V6.98695V6.96792V6.94936V6.93126V6.91364V6.89648V6.87981V6.86361V6.84789V6.83265V6.81789V6.80362V6.78984V6.77655V6.76374V6.75144V6.74297H14.4681C15.5229 6.74297 16.381 5.88641 16.381 4.83297V1.63413H20.9629C21.3821 1.63413 21.7221 1.29484 21.7221 0.876014C21.7221 0.457186 21.3821 0.117896 20.9629 0.117896H15.6219C15.4147 0.117896 15.2216 0.20369 15.0851 0.339887ZM12.3378 5.22673L14.8626 2.70603V4.83297C14.8626 5.04988 14.6857 5.22673 14.468 5.22673H12.3378ZM11.6385 34.2431H33.3634C34.4069 34.2431 35.2563 33.3957 35.2563 32.3531V14.2704H38.2679V36.3245H6.73388V14.2704H9.74564V32.353C9.74564 33.3954 10.5947 34.2431 11.6385 34.2431ZM16.8887 40.5637H28.1131V40.9955C28.1131 41.1622 27.9744 41.3007 27.8175 41.3007H17.1843C17.0274 41.3007 16.8887 41.1622 16.8887 40.9955V40.5637ZM1.41935 40.5637H15.3703V40.9955C15.3703 41.9995 16.1835 42.817 17.1843 42.817H27.8175C28.8183 42.817 29.6315 41.9995 29.6315 40.9955V40.5637H43.5825V42.0948C43.5825 42.9973 42.8571 43.7295 41.9682 43.7295H3.03364C2.14473 43.7295 1.41935 42.9973 1.41935 42.0948V40.5637Z" fill="black" stroke="black" stroke-width="0.2"/>
<path d="M31.1641 7.57529H20.4239C20.0047 7.57529 19.6647 7.91458 19.6647 8.33341C19.6647 8.75224 20.0047 9.09153 20.4239 9.09153H31.1641C31.5833 9.09153 31.9232 8.75224 31.9232 8.33341C31.9232 7.91458 31.5833 7.57529 31.1641 7.57529Z" fill="black" stroke="black" stroke-width="0.2"/>
<path d="M31.1641 10.1727H20.4239C20.0047 10.1727 19.6647 10.512 19.6647 10.9308C19.6647 11.3497 20.0047 11.6889 20.4239 11.6889H31.1641C31.5833 11.6889 31.9232 11.3497 31.9232 10.9308C31.9232 10.512 31.5833 10.1727 31.1641 10.1727Z" fill="black" stroke="black" stroke-width="0.2"/>
<path d="M31.1641 13.6319H20.4239C20.0047 13.6319 19.6647 13.9712 19.6647 14.3901C19.6647 14.8089 20.0047 15.1482 20.4239 15.1482H31.1641C31.5833 15.1482 31.9232 14.8089 31.9232 14.3901C31.9232 13.9712 31.5833 13.6319 31.1641 13.6319Z" fill="black" stroke="black" stroke-width="0.2"/>
<path d="M31.1641 16.2295H20.4239C20.0047 16.2295 19.6647 16.5688 19.6647 16.9876C19.6647 17.4064 20.0047 17.7457 20.4239 17.7457H31.1641C31.5833 17.7457 31.9232 17.4064 31.9232 16.9876C31.9232 16.5688 31.5833 16.2295 31.1641 16.2295Z" fill="black" stroke="black" stroke-width="0.2"/>
<path d="M31.1641 19.6885H20.4239C20.0047 19.6885 19.6647 20.0277 19.6647 20.4466C19.6647 20.8654 20.0047 21.2047 20.4239 21.2047H31.1641C31.5833 21.2047 31.9232 20.8654 31.9232 20.4466C31.9232 20.0277 31.5833 19.6885 31.1641 19.6885Z" fill="black" stroke="black" stroke-width="0.2"/>
<path d="M31.1641 22.2859H20.4239C20.0047 22.2859 19.6647 22.6252 19.6647 23.044C19.6647 23.4628 20.0047 23.8021 20.4239 23.8021H31.1641C31.5833 23.8021 31.9232 23.4628 31.9232 23.044C31.9232 22.6252 31.5833 22.2859 31.1641 22.2859Z" fill="black" stroke="black" stroke-width="0.2"/>
<path d="M14.7892 26.66L14.7891 26.66C14.4926 26.364 14.0121 26.364 13.7156 26.66C13.419 26.956 13.419 27.4362 13.7156 27.7322C13.7156 27.7322 13.7156 27.7322 13.7156 27.7322L15.0932 29.1076L15.0932 29.1076C15.3898 29.4036 15.8703 29.4036 16.1668 29.1076L18.2383 27.0393C18.5349 26.7432 18.5349 26.2631 18.2383 25.9671C17.9418 25.6711 17.4612 25.6711 17.1648 25.9671L15.6299 27.4995L14.7892 26.66Z" fill="black" stroke="black" stroke-width="0.2"/>
<path d="M31.1641 25.7451H20.4239C20.0047 25.7451 19.6647 26.0844 19.6647 26.5032C19.6647 26.922 20.0047 27.2613 20.4239 27.2613H31.1641C31.5833 27.2613 31.9232 26.922 31.9232 26.5032C31.9232 26.0844 31.5833 25.7451 31.1641 25.7451Z" fill="black" stroke="black" stroke-width="0.2"/>
<path d="M31.1641 28.3424H20.4239C20.0047 28.3424 19.6647 28.6817 19.6647 29.1005C19.6647 29.5193 20.0047 29.8586 20.4239 29.8586H31.1641C31.5833 29.8586 31.9232 29.5193 31.9232 29.1005C31.9232 28.6817 31.5833 28.3424 31.1641 28.3424Z" fill="black" stroke="black" stroke-width="0.2"/>
</g>
<defs>
<clipPath id="clip0">
<rect width="45" height="44.9279" fill="white" transform="translate(0 0.217896)"/>
</clipPath>
</defs>
</svg>
