<svg xmlns="http://www.w3.org/2000/svg" width="32" height="32" fill="none" viewBox="0 0 32 32">
    <path fill="#7D7283" fill-rule="evenodd" d="M26.652 16.156C25.286 18.469 21.833 23 16 23c-5.834 0-9.286-4.53-10.652-6.844-.035-.058-.046-.111-.046-.156s.011-.098.046-.156C6.714 13.531 10.166 9 16 9s9.286 4.53 10.652 6.844c.035.058.046.111.046.156s-.011.098-.046.156zm1.723-1.33c.431.732.431 1.616 0 2.347C26.934 19.611 22.964 25 16 25c-6.964 0-10.935-5.389-12.374-7.827-.432-.73-.432-1.615 0-2.346C5.066 12.389 9.036 7 16 7s10.935 5.389 12.375 7.827zM16 20c2.21 0 4-1.79 4-4s-1.79-4-4-4-4 1.79-4 4 1.79 4 4 4z" clip-rule="evenodd"/>
</svg>
