<svg width="16" height="20" viewBox="0 0 16 20" fill="none" xmlns="http://www.w3.org/2000/svg">
  <path d="M14.4963 0H3.38853C1.97508 0 0.825195 1.15652 0.825195 2.57813V17.1875C0.825195 18.7383 2.07964 20 3.62156 20H14.4963C14.8395 20 15.1177 19.7202 15.1177 19.375C15.1177 19.0298 14.8395 18.75 14.4963 18.75H3.62156C2.76494 18.75 2.06803 18.0491 2.06803 17.1875C2.06803 16.3259 2.76494 15.625 3.62156 15.625H14.4963C14.8395 15.625 15.1177 15.3452 15.1177 15V0.625C15.1177 0.279844 14.8395 0 14.4963 0ZM2.06803 14.509V2.57813C2.06803 1.84461 2.65922 1.25 3.38853 1.25H3.42737C3.5346 1.25 3.62156 1.33746 3.62156 1.44531V14.1861C3.62156 14.2882 3.54338 14.3742 3.44205 14.3807C3.05037 14.4059 2.68039 14.5125 2.34867 14.6839C2.22039 14.7501 2.06803 14.654 2.06803 14.509Z" fill="#222222"/>
</svg>
