<svg width="16" height="14" viewBox="0 0 16 14" fill="none" xmlns="http://www.w3.org/2000/svg">
<path d="M0.566667 2.57143H15.3C15.613 2.57143 15.8667 2.31561 15.8667 2V0.571429C15.8667 0.255821 15.613 0 15.3 0H0.566667C0.25369 0 0 0.255821 0 0.571429V2C0 2.31561 0.25369 2.57143 0.566667 2.57143ZM0.566667 8.28572H15.3C15.613 8.28572 15.8667 8.02989 15.8667 7.71429V6.28571C15.8667 5.97011 15.613 5.71429 15.3 5.71429H0.566667C0.25369 5.71429 0 5.97011 0 6.28571V7.71429C0 8.02989 0.25369 8.28572 0.566667 8.28572ZM0.566667 14H15.3C15.613 14 15.8667 13.7442 15.8667 13.4286V12C15.8667 11.6844 15.613 11.4286 15.3 11.4286H0.566667C0.25369 11.4286 0 11.6844 0 12V13.4286C0 13.7442 0.25369 14 0.566667 14Z" fill="#222222"/>
</svg>
