<svg width="18" height="18" viewBox="0 0 18 18" fill="none" xmlns="http://www.w3.org/2000/svg">
  <path fill-rule="evenodd" clip-rule="evenodd" d="M15.6719 1.5H2.32812C1.87062 1.5 1.5 1.87062 1.5 2.32812V15.6725C1.5 16.1294 1.87062 16.5 2.32812 16.5H9.5125V10.6912H7.5575V8.4275H9.5125V6.75812C9.5125 4.82063 10.6956 3.76562 12.4244 3.76562C13.2525 3.76562 13.9637 3.8275 14.1713 3.855V5.88L12.9725 5.88062C12.0325 5.88062 11.8506 6.3275 11.8506 6.9825V8.42813H14.0925L13.8006 10.6919H11.8506V16.5H15.6731C16.1294 16.5 16.5 16.1294 16.5 15.6719V2.32812C16.5 1.87062 16.1294 1.5 15.6719 1.5Z" fill="white"/>
</svg>
