<svg width="45" height="42" viewBox="0 0 45 42" fill="none" xmlns="http://www.w3.org/2000/svg">
<g clip-path="url(#clip0)">
<mask id="path-1-outside-1" maskUnits="userSpaceOnUse" x="-1" y="-0.267334" width="43" height="31" fill="black">
<rect fill="white" x="-1" y="-0.267334" width="43" height="31"/>
<path d="M0.65918 30.4281C1.0231 30.4281 1.31836 30.1549 1.31836 29.8176V12.0376H40.2652V18.7479C40.2652 19.0853 40.5605 19.3584 40.9244 19.3584C41.2887 19.3584 41.5836 19.0853 41.5836 18.7479V6.68338C41.5836 4.63675 39.7856 2.97166 37.576 2.97166H35.8474V2.21558C35.8474 1.39781 35.1291 0.732666 34.2461 0.732666H33.0215C32.1388 0.732666 31.4206 1.39781 31.4206 2.21558V2.97166H27.0487V2.21558C27.0487 1.39781 26.3305 0.732666 25.4474 0.732666H24.2228C23.3401 0.732666 22.6219 1.39781 22.6219 2.21558V2.97166H18.2497V2.21558C18.2497 1.39781 17.5314 0.732666 16.6484 0.732666H15.4241C14.5411 0.732666 13.8229 1.39781 13.8229 2.21558V2.97166H9.45099V2.21558C9.45099 1.39781 8.73276 0.732666 7.84973 0.732666H6.62544C5.74242 0.732666 5.02418 1.39781 5.02418 2.21558V2.97166H4.00795C1.79798 2.97166 0 4.63675 0 6.68338V29.8176C0 30.1549 0.295258 30.4281 0.65918 30.4281ZM32.7389 2.21558C32.7389 2.07123 32.8659 1.95359 33.0218 1.95359H34.2464C34.4023 1.95359 34.529 2.07123 34.529 2.21558V5.18139C34.529 5.32574 34.4023 5.44338 34.2464 5.44338H33.0218C32.8659 5.44338 32.7389 5.32606 32.7389 5.18139V2.21558ZM23.9402 2.21558C23.9402 2.07123 24.0669 1.95359 24.2228 1.95359H25.4474C25.6033 1.95359 25.7303 2.07123 25.7303 2.21558V5.18139C25.7303 5.32574 25.6033 5.44338 25.4474 5.44338H24.2228C24.0669 5.44338 23.9402 5.32606 23.9402 5.18139V2.21558ZM15.1412 2.21558C15.1412 2.07123 15.2682 1.95359 15.4241 1.95359H16.6487C16.8046 1.95359 16.9316 2.07123 16.9316 2.21558V5.18139C16.9316 5.32574 16.8046 5.44338 16.6487 5.44338H15.4241C15.2682 5.44338 15.1412 5.32606 15.1412 5.18139V2.21558ZM6.34254 2.21558C6.34254 2.07123 6.46957 1.95359 6.62544 1.95359H7.85007C8.00594 1.95359 8.13263 2.07123 8.13263 2.21558V5.18139C8.13263 5.32574 8.00594 5.44338 7.85007 5.44338H6.62544C6.46957 5.44338 6.34254 5.32606 6.34254 5.18139V2.21558ZM4.00795 4.19258H5.02418V5.18139C5.02418 5.99916 5.74242 6.6643 6.62544 6.6643H7.85007C8.73276 6.6643 9.45099 5.99916 9.45099 5.18139V4.19258H13.8232V5.18139C13.8232 5.99916 14.5414 6.6643 15.4241 6.6643H16.6487C17.5318 6.6643 18.25 5.99916 18.25 5.18139V4.19258H22.6219V5.18139C22.6219 5.99916 23.3401 6.6643 24.2231 6.6643H25.4478C26.3305 6.6643 27.0487 5.99916 27.0487 5.18139V4.19258H31.4206V5.18139C31.4206 5.99916 32.1388 6.6643 33.0218 6.6643H34.2464C35.1291 6.6643 35.8474 5.99916 35.8474 5.18139V4.19258H37.576C39.0591 4.19258 40.2656 5.30984 40.2656 6.68338V10.8167H1.31836V6.68338C1.31836 5.30984 2.5248 4.19258 4.00795 4.19258Z"/>
</mask>
<path d="M0.65918 30.4281C1.0231 30.4281 1.31836 30.1549 1.31836 29.8176V12.0376H40.2652V18.7479C40.2652 19.0853 40.5605 19.3584 40.9244 19.3584C41.2887 19.3584 41.5836 19.0853 41.5836 18.7479V6.68338C41.5836 4.63675 39.7856 2.97166 37.576 2.97166H35.8474V2.21558C35.8474 1.39781 35.1291 0.732666 34.2461 0.732666H33.0215C32.1388 0.732666 31.4206 1.39781 31.4206 2.21558V2.97166H27.0487V2.21558C27.0487 1.39781 26.3305 0.732666 25.4474 0.732666H24.2228C23.3401 0.732666 22.6219 1.39781 22.6219 2.21558V2.97166H18.2497V2.21558C18.2497 1.39781 17.5314 0.732666 16.6484 0.732666H15.4241C14.5411 0.732666 13.8229 1.39781 13.8229 2.21558V2.97166H9.45099V2.21558C9.45099 1.39781 8.73276 0.732666 7.84973 0.732666H6.62544C5.74242 0.732666 5.02418 1.39781 5.02418 2.21558V2.97166H4.00795C1.79798 2.97166 0 4.63675 0 6.68338V29.8176C0 30.1549 0.295258 30.4281 0.65918 30.4281ZM32.7389 2.21558C32.7389 2.07123 32.8659 1.95359 33.0218 1.95359H34.2464C34.4023 1.95359 34.529 2.07123 34.529 2.21558V5.18139C34.529 5.32574 34.4023 5.44338 34.2464 5.44338H33.0218C32.8659 5.44338 32.7389 5.32606 32.7389 5.18139V2.21558ZM23.9402 2.21558C23.9402 2.07123 24.0669 1.95359 24.2228 1.95359H25.4474C25.6033 1.95359 25.7303 2.07123 25.7303 2.21558V5.18139C25.7303 5.32574 25.6033 5.44338 25.4474 5.44338H24.2228C24.0669 5.44338 23.9402 5.32606 23.9402 5.18139V2.21558ZM15.1412 2.21558C15.1412 2.07123 15.2682 1.95359 15.4241 1.95359H16.6487C16.8046 1.95359 16.9316 2.07123 16.9316 2.21558V5.18139C16.9316 5.32574 16.8046 5.44338 16.6487 5.44338H15.4241C15.2682 5.44338 15.1412 5.32606 15.1412 5.18139V2.21558ZM6.34254 2.21558C6.34254 2.07123 6.46957 1.95359 6.62544 1.95359H7.85007C8.00594 1.95359 8.13263 2.07123 8.13263 2.21558V5.18139C8.13263 5.32574 8.00594 5.44338 7.85007 5.44338H6.62544C6.46957 5.44338 6.34254 5.32606 6.34254 5.18139V2.21558ZM4.00795 4.19258H5.02418V5.18139C5.02418 5.99916 5.74242 6.6643 6.62544 6.6643H7.85007C8.73276 6.6643 9.45099 5.99916 9.45099 5.18139V4.19258H13.8232V5.18139C13.8232 5.99916 14.5414 6.6643 15.4241 6.6643H16.6487C17.5318 6.6643 18.25 5.99916 18.25 5.18139V4.19258H22.6219V5.18139C22.6219 5.99916 23.3401 6.6643 24.2231 6.6643H25.4478C26.3305 6.6643 27.0487 5.99916 27.0487 5.18139V4.19258H31.4206V5.18139C31.4206 5.99916 32.1388 6.6643 33.0218 6.6643H34.2464C35.1291 6.6643 35.8474 5.99916 35.8474 5.18139V4.19258H37.576C39.0591 4.19258 40.2656 5.30984 40.2656 6.68338V10.8167H1.31836V6.68338C1.31836 5.30984 2.5248 4.19258 4.00795 4.19258Z" fill="black"/>
<path d="M0.65918 30.4281C1.0231 30.4281 1.31836 30.1549 1.31836 29.8176V12.0376H40.2652V18.7479C40.2652 19.0853 40.5605 19.3584 40.9244 19.3584C41.2887 19.3584 41.5836 19.0853 41.5836 18.7479V6.68338C41.5836 4.63675 39.7856 2.97166 37.576 2.97166H35.8474V2.21558C35.8474 1.39781 35.1291 0.732666 34.2461 0.732666H33.0215C32.1388 0.732666 31.4206 1.39781 31.4206 2.21558V2.97166H27.0487V2.21558C27.0487 1.39781 26.3305 0.732666 25.4474 0.732666H24.2228C23.3401 0.732666 22.6219 1.39781 22.6219 2.21558V2.97166H18.2497V2.21558C18.2497 1.39781 17.5314 0.732666 16.6484 0.732666H15.4241C14.5411 0.732666 13.8229 1.39781 13.8229 2.21558V2.97166H9.45099V2.21558C9.45099 1.39781 8.73276 0.732666 7.84973 0.732666H6.62544C5.74242 0.732666 5.02418 1.39781 5.02418 2.21558V2.97166H4.00795C1.79798 2.97166 0 4.63675 0 6.68338V29.8176C0 30.1549 0.295258 30.4281 0.65918 30.4281ZM32.7389 2.21558C32.7389 2.07123 32.8659 1.95359 33.0218 1.95359H34.2464C34.4023 1.95359 34.529 2.07123 34.529 2.21558V5.18139C34.529 5.32574 34.4023 5.44338 34.2464 5.44338H33.0218C32.8659 5.44338 32.7389 5.32606 32.7389 5.18139V2.21558ZM23.9402 2.21558C23.9402 2.07123 24.0669 1.95359 24.2228 1.95359H25.4474C25.6033 1.95359 25.7303 2.07123 25.7303 2.21558V5.18139C25.7303 5.32574 25.6033 5.44338 25.4474 5.44338H24.2228C24.0669 5.44338 23.9402 5.32606 23.9402 5.18139V2.21558ZM15.1412 2.21558C15.1412 2.07123 15.2682 1.95359 15.4241 1.95359H16.6487C16.8046 1.95359 16.9316 2.07123 16.9316 2.21558V5.18139C16.9316 5.32574 16.8046 5.44338 16.6487 5.44338H15.4241C15.2682 5.44338 15.1412 5.32606 15.1412 5.18139V2.21558ZM6.34254 2.21558C6.34254 2.07123 6.46957 1.95359 6.62544 1.95359H7.85007C8.00594 1.95359 8.13263 2.07123 8.13263 2.21558V5.18139C8.13263 5.32574 8.00594 5.44338 7.85007 5.44338H6.62544C6.46957 5.44338 6.34254 5.32606 6.34254 5.18139V2.21558ZM4.00795 4.19258H5.02418V5.18139C5.02418 5.99916 5.74242 6.6643 6.62544 6.6643H7.85007C8.73276 6.6643 9.45099 5.99916 9.45099 5.18139V4.19258H13.8232V5.18139C13.8232 5.99916 14.5414 6.6643 15.4241 6.6643H16.6487C17.5318 6.6643 18.25 5.99916 18.25 5.18139V4.19258H22.6219V5.18139C22.6219 5.99916 23.3401 6.6643 24.2231 6.6643H25.4478C26.3305 6.6643 27.0487 5.99916 27.0487 5.18139V4.19258H31.4206V5.18139C31.4206 5.99916 32.1388 6.6643 33.0218 6.6643H34.2464C35.1291 6.6643 35.8474 5.99916 35.8474 5.18139V4.19258H37.576C39.0591 4.19258 40.2656 5.30984 40.2656 6.68338V10.8167H1.31836V6.68338C1.31836 5.30984 2.5248 4.19258 4.00795 4.19258Z" stroke="black" stroke-width="0.4" mask="url(#path-1-outside-1)"/>
<path d="M7.46281 36.0052H1.7149C1.54406 36.0052 1.41836 35.8782 1.41836 35.7379V32.5995C1.41836 32.1998 1.07093 31.889 0.65918 31.889C0.247433 31.889 -0.1 32.1998 -0.1 32.5995V35.7379C-0.1 36.6759 0.721527 37.4261 1.7149 37.4261H7.46281C7.87459 37.4261 8.22199 37.115 8.22199 36.7156C8.22199 36.3159 7.87455 36.0052 7.46281 36.0052Z" fill="black" stroke="black" stroke-width="0.2"/>
<path d="M7.44084 14.6437H5.14951C4.73772 14.6437 4.39033 14.9548 4.39033 15.3541C4.39033 15.7538 4.73776 16.0646 5.14951 16.0646H7.44084C7.85259 16.0646 8.20002 15.7538 8.20002 15.3541C8.20002 14.9548 7.85262 14.6437 7.44084 14.6437Z" fill="black" stroke="black" stroke-width="0.2"/>
<path d="M12.191 16.0646H14.4824C14.8941 16.0646 15.2416 15.7538 15.2416 15.3541C15.2416 14.9548 14.8942 14.6437 14.4824 14.6437H12.191C11.7793 14.6437 11.4319 14.9548 11.4319 15.3541C11.4319 15.7538 11.7793 16.0646 12.191 16.0646Z" fill="black" stroke="black" stroke-width="0.2"/>
<path d="M19.2326 16.0646H21.5236C21.9353 16.0646 22.2828 15.7538 22.2828 15.3541C22.2828 14.9548 21.9354 14.6437 21.5236 14.6437H19.2326C18.8204 14.6437 18.4734 14.9548 18.4734 15.3541C18.4734 15.7538 18.8205 16.0646 19.2326 16.0646Z" fill="black" stroke="black" stroke-width="0.2"/>
<path d="M26.2738 16.0646H28.5651C28.9769 16.0646 29.3243 15.7538 29.3243 15.3541C29.3243 14.9548 28.9769 14.6437 28.5651 14.6437H26.2738C25.862 14.6437 25.5146 14.9548 25.5146 15.3541C25.5146 15.7538 25.8621 16.0646 26.2738 16.0646Z" fill="black" stroke="black" stroke-width="0.2"/>
<path d="M35.6063 14.6437H33.3154C32.9032 14.6437 32.5562 14.9548 32.5562 15.3541C32.5562 15.7538 32.9032 16.0646 33.3154 16.0646H35.6063C36.0181 16.0646 36.3655 15.7538 36.3655 15.3541C36.3655 14.9548 36.0181 14.6437 35.6063 14.6437Z" fill="black" stroke="black" stroke-width="0.2"/>
<path d="M7.44084 19.348H5.14951C4.73776 19.348 4.39033 19.6588 4.39033 20.0585C4.39033 20.4582 4.73776 20.7689 5.14951 20.7689H7.44084C7.85259 20.7689 8.20002 20.4582 8.20002 20.0585C8.20002 19.6588 7.85259 19.348 7.44084 19.348Z" fill="black" stroke="black" stroke-width="0.2"/>
<path d="M12.191 20.7689H14.4824C14.8941 20.7689 15.2416 20.4582 15.2416 20.0585C15.2416 19.6588 14.8941 19.348 14.4824 19.348H12.191C11.7793 19.348 11.4319 19.6588 11.4319 20.0585C11.4319 20.4582 11.7793 20.7689 12.191 20.7689Z" fill="black" stroke="black" stroke-width="0.2"/>
<path d="M19.2326 20.7689H21.5236C21.9353 20.7689 22.2828 20.4582 22.2828 20.0585C22.2828 19.6588 21.9353 19.348 21.5236 19.348H19.2326C18.8205 19.348 18.4734 19.6588 18.4734 20.0585C18.4734 20.4581 18.8205 20.7689 19.2326 20.7689Z" fill="black" stroke="black" stroke-width="0.2"/>
<path d="M26.2738 20.7689H28.5651C28.9769 20.7689 29.3243 20.4582 29.3243 20.0585C29.3243 19.6588 28.9769 19.348 28.5651 19.348H26.2738C25.8621 19.348 25.5146 19.6588 25.5146 20.0585C25.5146 20.4582 25.8621 20.7689 26.2738 20.7689Z" fill="black" stroke="black" stroke-width="0.2"/>
<path d="M35.6063 19.348H33.3154C32.9032 19.348 32.5562 19.6588 32.5562 20.0585C32.5562 20.4581 32.9032 20.7689 33.3154 20.7689H35.6063C36.0181 20.7689 36.3655 20.4582 36.3655 20.0585C36.3655 19.6588 36.0181 19.348 35.6063 19.348Z" fill="black" stroke="black" stroke-width="0.2"/>
<path d="M7.44084 24.9044H5.14951C4.73776 24.9044 4.39033 25.2152 4.39033 25.6149C4.39033 26.0146 4.73776 26.3253 5.14951 26.3253H7.44084C7.85259 26.3253 8.20002 26.0146 8.20002 25.6149C8.20002 25.2152 7.85259 24.9044 7.44084 24.9044Z" fill="black" stroke="black" stroke-width="0.2"/>
<path d="M12.191 26.3253H14.4824C14.8941 26.3253 15.2416 26.0146 15.2416 25.6149C15.2416 25.2152 14.8941 24.9044 14.4824 24.9044H12.191C11.7793 24.9044 11.4319 25.2152 11.4319 25.6149C11.4319 26.0146 11.7793 26.3253 12.191 26.3253Z" fill="black" stroke="black" stroke-width="0.2"/>
<path d="M19.2326 26.3253H21.5236C21.9353 26.3253 22.2828 26.0146 22.2828 25.6149C22.2828 25.2152 21.9353 24.9044 21.5236 24.9044H19.2326C18.8205 24.9044 18.4734 25.2152 18.4734 25.6149C18.4734 26.0145 18.8205 26.3253 19.2326 26.3253Z" fill="black" stroke="black" stroke-width="0.2"/>
<path d="M26.2738 26.3253H28.5651C28.9769 26.3253 29.3243 26.0146 29.3243 25.6149C29.3243 25.2152 28.9769 24.9044 28.5651 24.9044H26.2738C25.8621 24.9044 25.5146 25.2152 25.5146 25.6149C25.5146 26.0146 25.8621 26.3253 26.2738 26.3253Z" fill="black" stroke="black" stroke-width="0.2"/>
<path d="M7.44084 30.461H5.14951C4.73776 30.461 4.39033 30.7718 4.39033 31.1715C4.39033 31.5712 4.73776 31.882 5.14951 31.882H7.44084C7.85259 31.882 8.20002 31.5712 8.20002 31.1715C8.20002 30.7718 7.85259 30.461 7.44084 30.461Z" fill="black" stroke="black" stroke-width="0.2"/>
<path d="M12.191 31.882H14.4824C14.8941 31.882 15.2416 31.5712 15.2416 31.1715C15.2416 30.7718 14.8941 30.461 14.4824 30.461H12.191C11.7793 30.461 11.4319 30.7718 11.4319 31.1715C11.4319 31.5712 11.7793 31.882 12.191 31.882Z" fill="black" stroke="black" stroke-width="0.2"/>
<path d="M19.2326 31.882H21.5236C21.9353 31.882 22.2828 31.5712 22.2828 31.1715C22.2828 30.7718 21.9353 30.461 21.5236 30.461H19.2326C18.8205 30.461 18.4734 30.7718 18.4734 31.1715C18.4734 31.5712 18.8205 31.882 19.2326 31.882Z" fill="black" stroke="black" stroke-width="0.2"/>
<path d="M41.5836 26.4012V21.5299C41.5836 21.1926 41.2887 20.9194 40.9244 20.9194C40.5605 20.9194 40.2652 21.1926 40.2652 21.5299V25.6225C39.0632 25.0454 37.6992 24.7189 36.2545 24.7189C31.4322 24.7189 27.5091 28.3521 27.5091 32.818C27.5091 33.9877 27.7786 35.0999 28.2623 36.1053H10.4665C10.1026 36.1053 9.80734 36.3784 9.80734 36.7157C9.80734 37.0527 10.1026 37.3262 10.4665 37.3262H28.9926C30.5639 39.4905 33.2326 40.9171 36.2545 40.9171C41.0768 40.9171 45 37.2839 45 32.818C45 30.2083 43.6597 27.8831 41.5836 26.4012ZM36.2545 39.6962C32.159 39.6962 28.8274 36.6108 28.8274 32.818C28.8274 29.0252 32.1594 25.9398 36.2545 25.9398C40.3497 25.9398 43.6816 29.0252 43.6816 32.818C43.6816 36.6108 40.3497 39.6962 36.2545 39.6962Z" fill="black"/>
<path d="M41.5836 26.4012V21.5299C41.5836 21.1926 41.2887 20.9194 40.9244 20.9194C40.5605 20.9194 40.2652 21.1926 40.2652 21.5299V25.6225C39.0632 25.0454 37.6992 24.7189 36.2545 24.7189C31.4322 24.7189 27.5091 28.3521 27.5091 32.818C27.5091 33.9877 27.7786 35.0999 28.2623 36.1053H10.4665C10.1026 36.1053 9.80734 36.3784 9.80734 36.7157C9.80734 37.0527 10.1026 37.3262 10.4665 37.3262H28.9926C30.5639 39.4905 33.2326 40.9171 36.2545 40.9171C41.0768 40.9171 45 37.2839 45 32.818C45 30.2083 43.6597 27.8831 41.5836 26.4012ZM36.2545 39.6962C32.159 39.6962 28.8274 36.6108 28.8274 32.818C28.8274 29.0252 32.1594 25.9398 36.2545 25.9398C40.3497 25.9398 43.6816 29.0252 43.6816 32.818C43.6816 36.6108 40.3497 39.6962 36.2545 39.6962Z" stroke="black"/>
<path d="M36.2545 26.8218C32.6843 26.8218 29.7798 29.5119 29.7798 32.818C29.7798 36.1243 32.6843 38.8141 36.2545 38.8141C39.8248 38.8141 42.7289 36.1243 42.7289 32.818C42.7289 29.5119 39.8244 26.8218 36.2545 26.8218ZM36.8447 37.5608C36.8883 37.4791 36.9137 37.3875 36.9137 37.2902V36.5465C36.9137 36.2095 36.6185 35.9361 36.2545 35.9361C35.8906 35.9361 35.5954 36.2095 35.5954 36.5465V37.2902C35.5954 37.3875 35.6204 37.4791 35.6644 37.5608C33.292 37.3093 31.4048 35.5615 31.1332 33.3645C31.2211 33.4052 31.3203 33.4284 31.4254 33.4284H32.2281C32.5923 33.4284 32.8872 33.1553 32.8872 32.818C32.8872 32.4806 32.5923 32.2075 32.2281 32.2075H31.4254C31.3203 32.2075 31.2211 32.231 31.1332 32.2714C31.4048 30.0744 33.292 28.3266 35.6644 28.0751C35.6204 28.1568 35.5954 28.2484 35.5954 28.3457V29.0894C35.5954 29.4267 35.8906 29.6998 36.2545 29.6998C36.6185 29.6998 36.9137 29.4267 36.9137 29.0894V28.3457C36.9137 28.2484 36.8883 28.1568 36.8447 28.0751C39.2171 28.3266 41.1043 30.0744 41.3759 32.2714C41.2877 32.231 41.1888 32.2075 41.0837 32.2075H40.2807C39.9168 32.2075 39.6215 32.4806 39.6215 32.818C39.6215 33.1553 39.9168 33.4284 40.2807 33.4284H41.0837C41.1888 33.4284 41.2877 33.4052 41.3759 33.3645C41.104 35.5615 39.2171 37.3093 36.8447 37.5608Z" fill="black"/>
<path d="M36.2545 26.8218C32.6843 26.8218 29.7798 29.5119 29.7798 32.818C29.7798 36.1243 32.6843 38.8141 36.2545 38.8141C39.8248 38.8141 42.7289 36.1243 42.7289 32.818C42.7289 29.5119 39.8244 26.8218 36.2545 26.8218ZM36.8447 37.5608C36.8883 37.4791 36.9137 37.3875 36.9137 37.2902V36.5465C36.9137 36.2095 36.6185 35.9361 36.2545 35.9361C35.8906 35.9361 35.5954 36.2095 35.5954 36.5465V37.2902C35.5954 37.3875 35.6204 37.4791 35.6644 37.5608C33.292 37.3093 31.4048 35.5615 31.1332 33.3645C31.2211 33.4052 31.3203 33.4284 31.4254 33.4284H32.2281C32.5923 33.4284 32.8872 33.1553 32.8872 32.818C32.8872 32.4806 32.5923 32.2075 32.2281 32.2075H31.4254C31.3203 32.2075 31.2211 32.231 31.1332 32.2714C31.4048 30.0744 33.292 28.3266 35.6644 28.0751C35.6204 28.1568 35.5954 28.2484 35.5954 28.3457V29.0894C35.5954 29.4267 35.8906 29.6998 36.2545 29.6998C36.6185 29.6998 36.9137 29.4267 36.9137 29.0894V28.3457C36.9137 28.2484 36.8883 28.1568 36.8447 28.0751C39.2171 28.3266 41.1043 30.0744 41.3759 32.2714C41.2877 32.231 41.1888 32.2075 41.0837 32.2075H40.2807C39.9168 32.2075 39.6215 32.4806 39.6215 32.818C39.6215 33.1553 39.9168 33.4284 40.2807 33.4284H41.0837C41.1888 33.4284 41.2877 33.4052 41.3759 33.3645C41.104 35.5615 39.2171 37.3093 36.8447 37.5608Z" stroke="black"/>
<path d="M37.7075 32.1074H37.0137V31.5814C37.0137 31.1821 36.6663 30.8709 36.2545 30.8709C35.8424 30.8709 35.4954 31.1821 35.4954 31.5814V32.8179C35.4954 33.2176 35.8424 33.5284 36.2545 33.5284H37.7075C38.1192 33.5284 38.4667 33.2176 38.4667 32.8179C38.4667 32.4182 38.1192 32.1074 37.7075 32.1074Z" fill="black" stroke="black" stroke-width="0.2"/>
</g>
<defs>
<clipPath id="clip0">
<rect width="45" height="41.6741" fill="white"/>
</clipPath>
</defs>
</svg>
