<svg width="17" height="14" viewBox="0 0 17 14" fill="none" xmlns="http://www.w3.org/2000/svg">
<path d="M16.0033 0.00169703C14.3859 0.0988841 11.1712 0.452632 9.18665 1.73888C9.04971 1.82763 8.97208 1.98544 8.97208 2.15044V13.5213C8.97208 13.8823 9.34485 14.1104 9.65918 13.9429C11.701 12.8548 14.6539 12.5579 16.114 12.4766C16.6125 12.4488 17 12.0257 17 11.5185V0.961067C17.0003 0.407633 16.547 -0.0308028 16.0033 0.00169703ZM7.81335 1.73888C5.82909 0.452632 2.61439 0.0991966 0.996996 0.00169703C0.453341 -0.0308028 0 0.407633 0 0.961067V11.5188C0 12.0263 0.387524 12.4494 0.886022 12.4769C2.34669 12.5582 5.30108 12.8554 7.34289 13.9441C7.65633 14.1113 8.02792 13.8835 8.02792 13.5235V2.14481C8.02792 1.9795 7.95059 1.82794 7.81335 1.73888Z" fill="#555555"/>
</svg>
